<?xml version="1.0" encoding="utf-8"?>
<!-- Generator: Adobe Illustrator 28.2.0, SVG Export Plug-In . SVG Version: 6.00 Build 0)  -->
<svg version="1.1" id="Layer_1" xmlns="http://www.w3.org/2000/svg" xmlns:xlink="http://www.w3.org/1999/xlink" x="0px" y="0px"
	 viewBox="0 0 360 360" style="enable-background:new 0 0 360 360;" xml:space="preserve">
<style type="text/css">
	.st0{fill:#5DA456;}
	.st1{fill:#3C693E;}
	.st2{fill:none;stroke:#272425;stroke-width:0.3326;stroke-miterlimit:10;}
	.st3{fill:#6EB253;}
	.st4{fill:#9DC44D;}
	.st5{fill:none;stroke:#272425;stroke-width:0.0831;stroke-miterlimit:10;}
	.st6{fill:#FFFFFF;}
	.st7{fill:#272425;}
</style>
<g>
	<path class="st0" d="M334.12,213.97h-45.92c-1.34,0-2.43-1.09-2.43-2.43v-45.92c0-1.34,1.09-2.43,2.43-2.43h45.92
		c1.34,0,2.43,1.09,2.43,2.43v45.92C336.55,212.88,335.47,213.97,334.12,213.97z"/>
	<g>
		<g>
			<polygon id="XMLID_00000055688835732844608350000010815816402452357022_" class="st1" points="301.96,129.38 141.05,141.84 
				155.91,167.56 			"/>
			<polygon id="XMLID_00000093148887024470149800000007818676094036338865_" class="st0" points="143.33,118.02 164.91,100.83 
				136.1,112.93 136.11,113.33 			"/>
			<polygon id="XMLID_00000160889533022277068670000005112338723897575312_" class="st2" points="136.11,113.33 136.1,112.93 
				135.73,113.08 135.73,113.08 			"/>
			<polygon id="XMLID_00000136401885752206576490000011561804459542532753_" class="st1" points="108.33,208.09 95.71,189.3 
				85.69,235.18 85.72,235.26 108.33,208.11 			"/>
			<polygon id="XMLID_00000156581845455120532690000017044714158044859021_" class="st1" points="109.07,207.81 129.31,192.33 
				129.9,191.43 136.51,186.53 137.62,177.17 138.04,176.96 137.87,171.27 			"/>
			<polygon id="XMLID_00000121989893292644535550000003052964388912448926_" class="st1" points="135.55,113.16 135.73,113.08 
				125.31,111.31 113.57,119.57 113.56,119.64 135.55,113.16 			"/>
			<polygon id="XMLID_00000056403170149657048750000001970847380050560696_" class="st3" points="108.33,208.11 85.72,235.26 
				89.55,246.55 108.33,208.12 			"/>
			<polygon id="XMLID_00000028296488785860291620000007715559894710322333_" class="st3" points="156.43,167.56 156.16,167.71 
				156.43,167.56 141.05,140.96 140.31,141.1 141.05,140.96 140.93,140.76 143.47,118.11 143.33,118.02 142.85,118.4 143.33,118.02 
				136.11,113.33 137.87,171.27 138.05,171.03 137.87,171.27 138.04,176.96 156.59,167.84 			"/>
			<polygon id="XMLID_00000145772157205907456960000006258368046836115343_" class="st3" points="89.63,246.77 95.26,243.68 
				122.13,203.16 89.6,246.7 			"/>
			<polygon id="XMLID_00000129175001203831638650000004494750078884667836_" class="st4" points="137.87,171.27 136.11,113.33 
				135.73,113.08 135.73,113.08 135.55,113.16 119.1,133.65 109.94,145.6 137.76,170.34 105.06,149.48 109.94,145.6 3.98,133.7 
				4.19,133.8 104.55,149.46 104.46,149.86 108.33,208.09 108.33,208.1 108.63,207.75 108.33,208.1 109.07,209.19 108.33,208.1 
				108.33,208.11 108.33,208.12 89.55,246.55 89.6,246.7 122.13,203.16 129.31,192.33 109.07,207.81 			"/>
			<polygon id="XMLID_00000093146216120005519880000017838697181341431994_" class="st0" points="104.45,149.77 104.46,149.86 
				104.55,149.46 4.19,133.8 98.52,174.97 104.46,149.86 			"/>
			<polygon id="XMLID_00000067933675455458866780000007893230773488368046_" class="st3" points="104.46,149.86 98.52,174.97 
				98.82,175.1 95.71,189.3 108.33,208.09 			"/>
			<polygon id="XMLID_00000005956797906871752570000005932592924438383256_" class="st5" points="108.33,208.1 108.33,208.09 
				108.33,208.11 			"/>
			<polygon id="XMLID_00000103977082125693846210000006380037277401070475_" class="st1" points="135.55,113.16 135.27,113.28 
				135.55,113.16 135.55,113.16 113.56,119.64 109.94,145.6 119.1,133.65 			"/>
			<polygon id="XMLID_00000163754525033167595410000010092767367912337801_" class="st3" points="137.76,170.34 109.94,145.6 
				105.06,149.48 			"/>
			<path id="XMLID_00000008868711130313050520000014154657606247372179_" class="st6" d="M127.67,120.13c0,1.07-0.86,1.93-1.93,1.93
				c-1.07,0-1.93-0.86-1.93-1.93c0-1.07,0.86-1.93,1.93-1.93C126.81,118.2,127.67,119.06,127.67,120.13z"/>
			<g id="XMLID_00000017480228915352914050000009230126762461765796_">
				<path id="XMLID_00000122709521109765887250000004759829961287037829_" class="st1" d="M164.22,183.57h6.48v27.33h-6.38
					L164,206.9c-1.55,3.21-5.82,4.77-8.87,4.82c-8.09,0.06-14.08-4.93-14.08-14.52c0-9.42,6.26-14.36,14.24-14.3
					c3.66,0,7.15,1.72,8.7,4.43L164.22,183.57z M147.81,197.2c0,5.21,3.6,8.31,8.09,8.31c10.64,0,10.64-16.57,0-16.57
					C151.41,188.94,147.81,191.99,147.81,197.2z"/>
				<path id="XMLID_00000059994962909640863220000000111072020093415069_" class="st1" d="M193.09,172.15v15.13
					c1.61-2.83,6.09-4.38,8.98-4.38c7.98,0,13.91,4.88,13.91,14.3c0,8.98-6.04,14.3-14.08,14.3c-3.32,0-6.71-1.11-8.81-4.38
					l-0.44,3.77h-6.32v-38.74H193.09z M193.53,197.2c0,4.93,3.66,8.04,7.92,8.04c4.32,0,7.76-3.27,7.76-8.04
					c0-4.93-3.44-7.98-7.76-7.98C197.19,189.22,193.53,192.44,193.53,197.2z"/>
				<path id="XMLID_00000163044834682927071700000007954952959847379126_" class="st1" d="M254.88,207.4
					c-3.16,3.11-6.48,4.32-10.53,4.32c-7.93,0-14.52-4.76-14.52-14.46c0-9.7,6.6-14.47,14.52-14.47c3.88,0,6.87,1.11,9.87,4.05
					l-4.27,4.49c-1.61-1.44-3.6-2.16-5.49-2.16c-4.54,0-7.87,3.33-7.87,8.09c0,5.21,3.55,7.98,7.76,7.98c2.16,0,4.32-0.61,5.99-2.27
					L254.88,207.4z"/>
				<path id="XMLID_00000108297184309990842620000009049255952902278318_" class="st1" d="M275.05,172.15v38.74h-6.71v-38.74H275.05
					z"/>
			</g>
			<g id="XMLID_00000105424228803821167740000003116432658795076497_">
				<path id="XMLID_00000000929418441549328700000004695801888023184058_" class="st7" d="M344.67,210.13h-1.47v6.13h-0.59v-6.13
					h-1.47v-0.56h3.53V210.13z"/>
				<path id="XMLID_00000049193198284139129160000012594924204841390782_" class="st7" d="M350.34,209.58v6.69h-0.59v-3.53
					c0-0.67,0.02-1.3,0.06-1.89l-0.04-0.01c-0.06,0.17-0.19,0.52-0.4,1.03l-0.29,0.72l-0.82,2.1h-0.59l-0.82-2.1l-0.28-0.72
					c-0.21-0.52-0.35-0.86-0.4-1.03l-0.04,0.01c0.04,0.59,0.06,1.23,0.06,1.89v3.53h-0.59v-6.69h0.63l1.19,2.89
					c0.15,0.38,0.33,0.88,0.54,1.49h0.04c0.2-0.61,0.38-1.11,0.53-1.49l1.19-2.89H350.34z"/>
			</g>
			<g id="XMLID_00000134959073538491969890000014871532224019889822_">
				<g id="XMLID_00000163050946221710401030000006979729039210201779_">
					<path id="XMLID_00000087413470914005875880000018283006189966091187_" class="st6" d="M294.18,204.97v-32.29h6.52v32.29H294.18
						z"/>
					<path id="XMLID_00000122708654326569476970000012231409132506681023_" class="st6" d="M314.18,204.97v-26.83h-9.58v-5.46h25.66
						v5.46h-9.56v26.83H314.18z"/>
				</g>
			</g>
			<g>
				<g>
					<path class="st1" d="M151.92,238.8h-2.42l-0.81-2.27h-4.7l-0.81,2.27h-2.42l4.32-11.25h2.52L151.92,238.8z M147.95,234.44
						l-1.6-4.57l-1.61,4.57H147.95z"/>
					<path class="st1" d="M162.07,238.8h-1.92l-4.8-7.15v7.15h-2.25v-11.25h1.9l4.81,7.17v-7.17h2.25V238.8z"/>
					<path class="st1" d="M168.15,227.54c3.64,0,5.79,2.27,5.79,5.51c0,3.34-2.2,5.74-5.79,5.74h-4.12v-11.25H168.15z
						 M166.37,236.55h1.73c2.25,0,3.4-1.33,3.4-3.49c0-2.07-1.11-3.26-3.4-3.26h-1.73V236.55z"/>
					<path class="st1" d="M190.32,227.54v2.22h-3.09v9.03h-2.34v-9.03h-3.09v-2.22H190.32z"/>
					<path class="st1" d="M191.55,227.54h4.38c2.56,0,4.05,1.21,4.05,3.47c0,1.38-0.87,2.86-2.42,3.34l2.66,4.44h-2.68l-2.12-3.76
						h-1.54v3.76h-2.34V227.54z M193.9,232.87h1.98c1.06,0,1.69-0.56,1.69-1.67c0-1-0.52-1.48-1.76-1.48h-1.92V232.87z"/>
					<path class="st1" d="M211.69,238.8h-2.42l-0.81-2.27h-4.7l-0.81,2.27h-2.42l4.32-11.25h2.52L211.69,238.8z M207.72,234.44
						l-1.6-4.57l-1.61,4.57H207.72z"/>
					<path class="st1" d="M215.3,238.8h-2.34v-11.25h2.34V238.8z"/>
					<path class="st1" d="M226.3,238.8h-1.92l-4.8-7.15v7.15h-2.25v-11.25h1.9l4.81,7.17v-7.17h2.25V238.8z"/>
					<path class="st1" d="M230.68,238.8h-2.34v-11.25h2.34V238.8z"/>
					<path class="st1" d="M241.68,238.8h-1.92l-4.8-7.15v7.15h-2.25v-11.25h1.9l4.81,7.17v-7.17h2.25V238.8z"/>
					<path class="st1" d="M249.07,232.62h5.51c0.05,0.31,0.06,0.59,0.06,0.88c0,3.28-2.06,5.5-5.46,5.5c-3.51,0-5.86-2.36-5.86-5.85
						c0-3.44,2.31-5.82,5.71-5.82c2.15,0,3.94,0.95,4.83,2.56l-1.9,1.08c-0.55-0.98-1.61-1.46-2.83-1.46c-2.07,0-3.36,1.4-3.36,3.68
						c0,2.28,1.28,3.71,3.43,3.71c1.68,0,2.8-0.88,2.91-2.28h-3.05V232.62z"/>
					<path class="st1" d="M266.31,238.8h-2.34v-11.25h2.34V238.8z"/>
					<path class="st1" d="M277.31,238.8h-1.92l-4.8-7.15v7.15h-2.25v-11.25h1.9l4.81,7.17v-7.17h2.25V238.8z"/>
					<path class="st1" d="M283.25,229.47c-1.16,0-1.49,0.48-1.49,1.03c0,0.9,0.79,1.21,2.2,1.64c1.87,0.59,3.51,1.32,3.51,3.36
						c0,2.17-1.68,3.5-4.23,3.5c-1.61,0-3.09-0.47-4.32-1.61l1.42-1.74c0.92,0.95,1.95,1.21,2.94,1.21c1.41,0,1.76-0.59,1.76-1.21
						c0-0.84-0.62-1.08-1.98-1.46c-2.23-0.69-3.72-1.58-3.72-3.62c0-1.99,1.54-3.25,3.86-3.25c1.47,0,2.77,0.31,3.99,1.38l-1.47,1.7
						C285,229.73,284.2,229.47,283.25,229.47z"/>
					<path class="st1" d="M296.45,227.54v2.22h-3.09v9.03h-2.34v-9.03h-3.09v-2.22H296.45z"/>
					<path class="st1" d="M300.1,238.8h-2.34v-11.25h2.34V238.8z"/>
					<path class="st1" d="M309.93,227.54v2.22h-3.09v9.03h-2.34v-9.03h-3.09v-2.22H309.93z"/>
					<path class="st1" d="M320.13,234.6c0,2.7-1.68,4.4-4.48,4.4c-2.8,0-4.48-1.7-4.48-4.4v-7.06h2.34v6.82
						c0,1.53,0.71,2.43,2.14,2.43c1.42,0,2.14-0.9,2.14-2.43v-6.82h2.34V234.6z"/>
					<path class="st1" d="M329.88,227.54v2.22h-3.09v9.03h-2.34v-9.03h-3.09v-2.22H329.88z"/>
					<path class="st1" d="M338.22,227.54v2.22h-4.76v2.35h4.51v2.04h-4.51v2.43h4.8v2.22h-7.14v-11.25H338.22z"/>
				</g>
			</g>
		</g>
	</g>
</g>
</svg>
