<?xml version="1.0" encoding="UTF-8"?>
<svg id="Layer_1" data-name="Layer 1" xmlns="http://www.w3.org/2000/svg" viewBox="0 0 230.4 124.23">
  <defs>
    <style>
      .cls-1 {
        fill: #cb534a;
      }

      .cls-1, .cls-2, .cls-3, .cls-4, .cls-5, .cls-6, .cls-7, .cls-8, .cls-9, .cls-10, .cls-11, .cls-12, .cls-13, .cls-14, .cls-15, .cls-16, .cls-17, .cls-18, .cls-19, .cls-20, .cls-21, .cls-22, .cls-23, .cls-24, .cls-25, .cls-26, .cls-27 {
        stroke-width: 0px;
      }

      .cls-2 {
        fill: #87bc51;
      }

      .cls-3 {
        fill: #e2af33;
      }

      .cls-4 {
        fill: #ca5d2d;
      }

      .cls-5 {
        fill: #cd8532;
      }

      .cls-6 {
        fill: #b83f68;
      }

      .cls-7 {
        fill: #304e6c;
      }

      .cls-8 {
        fill: #44337b;
      }

      .cls-9 {
        fill: #272425;
      }

      .cls-10 {
        fill: #ae2537;
      }

      .cls-11 {
        fill: #5f3083;
      }

      .cls-12 {
        fill: #e5e33c;
      }

      .cls-13 {
        fill: #4f8b99;
      }

      .cls-14 {
        fill: #4f87c6;
      }

      .cls-15 {
        fill: #c63732;
      }

      .cls-16 {
        fill: #ead136;
      }

      .cls-17 {
        fill: #3d6482;
      }

      .cls-18 {
        fill: #b52163;
      }

      .cls-19 {
        fill: #4f879e;
      }

      .cls-20 {
        fill: #e3b033;
      }

      .cls-21 {
        fill: #d27752;
      }

      .cls-22 {
        fill: #b84d2e;
      }

      .cls-23 {
        fill: #b42257;
      }

      .cls-24 {
        fill: #52904d;
      }

      .cls-25 {
        fill: #8b245e;
      }

      .cls-26 {
        fill: #af2359;
      }

      .cls-27 {
        fill: #67b1ce;
      }
    </style>
  </defs>
  <g>
    <polygon class="cls-19" points="3.22 102.81 3.22 102.81 0 96.38 6.44 96.38 3.22 102.81"/>
    <polygon class="cls-25" points="9.65 89.96 9.65 89.96 12.87 96.38 6.44 96.38 9.65 89.96"/>
    <polygon class="cls-15" points="16.08 89.96 16.08 89.96 19.29 96.38 12.87 96.38 16.08 89.96"/>
    <polygon class="cls-4" points="22.5 102.81 22.5 102.81 19.29 96.38 25.72 96.38 22.5 102.81"/>
    <polygon class="cls-3" points="28.93 102.81 28.93 102.81 25.72 96.38 32.14 96.38 28.93 102.81"/>
    <polygon class="cls-24" points="35.35 89.96 35.35 89.96 38.56 96.38 32.14 96.38 35.35 89.96"/>
    <polygon class="cls-12" points="41.78 102.81 41.78 102.81 38.56 96.38 44.99 96.38 41.78 102.81"/>
    <polygon class="cls-5" points="48.2 89.96 48.2 89.96 51.42 96.38 44.99 96.38 48.2 89.96"/>
    <polygon class="cls-22" points="54.63 89.96 54.63 89.96 57.84 96.38 51.42 96.38 54.63 89.96"/>
    <polygon class="cls-10" points="61.06 89.96 61.06 89.96 64.27 96.38 57.84 96.38 61.06 89.96"/>
    <polygon class="cls-23" points="67.48 89.96 67.48 89.96 70.7 96.38 64.27 96.38 67.48 89.96"/>
    <polygon class="cls-25" points="73.91 89.96 73.91 89.96 77.12 96.38 70.7 96.38 73.91 89.96"/>
    <polygon class="cls-8" points="80.34 89.96 80.34 89.96 83.55 96.38 77.12 96.38 80.34 89.96"/>
    <polygon class="cls-27" points="86.76 102.81 86.76 102.81 83.55 96.38 89.97 96.38 86.76 102.81"/>
    <polygon class="cls-7" points="93.18 89.96 93.18 89.96 96.4 96.38 89.97 96.38 93.18 89.96"/>
    <polygon class="cls-25" points="99.61 89.96 99.61 89.96 102.82 96.38 96.4 96.38 99.61 89.96"/>
    <polygon class="cls-26" points="106.04 102.81 106.04 102.81 102.82 96.38 109.24 96.38 106.04 102.81"/>
    <polygon class="cls-15" points="106.04 89.96 106.04 89.96 109.24 96.38 102.82 96.38 106.04 89.96"/>
    <polygon class="cls-16" points="112.46 89.96 112.46 89.96 115.67 96.38 109.24 96.38 112.46 89.96"/>
    <polygon class="cls-3" points="118.89 102.81 118.89 102.81 115.67 96.38 122.1 96.38 118.89 102.81"/>
    <polygon class="cls-25" points="109.24 83.53 109.24 83.53 106.04 89.96 112.46 89.96 109.24 83.53"/>
    <polygon class="cls-26" points="102.82 96.38 102.82 96.38 106.04 89.96 99.61 89.96 102.82 96.38"/>
    <polygon class="cls-15" points="102.82 83.53 102.82 83.53 99.61 89.96 106.04 89.96 102.82 83.53"/>
    <polygon class="cls-15" points="96.4 96.38 96.4 96.38 99.61 89.96 93.18 89.96 96.4 96.38"/>
    <polygon class="cls-4" points="96.4 83.53 96.4 83.53 93.18 89.96 99.61 89.96 96.4 83.53"/>
    <polygon class="cls-3" points="89.97 96.38 89.97 96.38 93.18 89.96 86.76 89.96 89.97 96.38"/>
    <polygon class="cls-3" points="89.97 83.53 89.97 83.53 86.76 89.96 93.18 89.96 89.97 83.53"/>
    <polygon class="cls-7" points="83.55 96.38 83.55 96.38 86.76 89.96 80.34 89.96 83.55 96.38"/>
    <polygon class="cls-2" points="83.55 83.53 83.55 83.53 80.34 89.96 86.76 89.96 83.55 83.53"/>
    <polygon class="cls-12" points="77.12 96.38 77.12 96.38 80.34 89.96 73.91 89.96 77.12 96.38"/>
    <polygon class="cls-20" points="77.12 83.53 77.12 83.53 73.91 89.96 80.34 89.96 77.12 83.53"/>
    <polygon class="cls-4" points="70.7 96.38 70.7 96.38 73.91 89.96 67.48 89.96 70.7 96.38"/>
    <polygon class="cls-3" points="70.7 83.53 70.7 83.53 67.48 89.96 73.91 89.96 70.7 83.53"/>
    <polygon class="cls-15" points="64.27 96.38 64.27 96.38 67.48 89.96 61.06 89.96 64.27 96.38"/>
    <polygon class="cls-25" points="64.27 83.53 64.27 83.53 61.06 89.96 67.48 89.96 64.27 83.53"/>
    <polygon class="cls-1" points="57.84 96.38 57.84 96.38 61.06 89.96 54.63 89.96 57.84 96.38"/>
    <polygon class="cls-4" points="57.84 83.53 57.84 83.53 54.63 89.96 61.06 89.96 57.84 83.53"/>
    <polygon class="cls-25" points="51.42 96.38 51.42 96.38 54.63 89.96 48.2 89.96 51.42 96.38"/>
    <polygon class="cls-5" points="51.42 83.53 51.42 83.53 48.2 89.96 54.63 89.96 51.42 83.53"/>
    <polygon class="cls-11" points="44.99 96.38 44.99 96.38 48.2 89.96 41.78 89.96 44.99 96.38"/>
    <polygon class="cls-25" points="44.99 83.53 44.99 83.53 41.78 89.96 48.2 89.96 44.99 83.53"/>
    <polygon class="cls-7" points="38.56 96.38 38.56 96.38 41.78 89.96 35.35 89.96 38.56 96.38"/>
    <polygon class="cls-25" points="38.56 83.53 38.56 83.53 35.35 89.96 41.78 89.96 38.56 83.53"/>
    <polygon class="cls-27" points="32.14 96.38 32.14 96.38 35.35 89.96 28.93 89.96 32.14 96.38"/>
    <polygon class="cls-13" points="32.14 83.53 32.14 83.53 28.93 89.96 35.35 89.96 32.14 83.53"/>
    <polygon class="cls-13" points="25.72 96.38 25.72 96.38 28.93 89.96 22.5 89.96 25.72 96.38"/>
    <polygon class="cls-27" points="25.72 83.53 25.72 83.53 22.5 89.96 28.93 89.96 25.72 83.53"/>
    <polygon class="cls-8" points="19.29 96.38 19.29 96.38 22.5 89.96 16.08 89.96 19.29 96.38"/>
    <polygon class="cls-25" points="19.29 83.53 19.29 83.53 16.08 89.96 22.5 89.96 19.29 83.53"/>
    <polygon class="cls-15" points="12.87 83.53 12.87 83.53 9.65 89.96 16.08 89.96 12.87 83.53"/>
    <polygon class="cls-4" points="93.18 77.11 93.18 77.11 96.4 83.53 89.97 83.53 93.18 77.11"/>
    <polygon class="cls-16" points="93.18 89.96 93.18 89.96 89.97 83.53 96.4 83.53 93.18 89.96"/>
    <polygon class="cls-3" points="86.76 77.11 86.76 77.11 89.97 83.53 83.55 83.53 86.76 77.11"/>
    <polygon class="cls-12" points="86.76 89.96 86.76 89.96 83.55 83.53 89.97 83.53 86.76 89.96"/>
    <polygon class="cls-2" points="80.34 77.11 80.34 77.11 83.55 83.53 77.12 83.53 80.34 77.11"/>
    <polygon class="cls-24" points="80.34 89.96 80.34 89.96 77.12 83.53 83.55 83.53 80.34 89.96"/>
    <polygon class="cls-12" points="73.91 77.11 73.91 77.11 77.12 83.53 70.7 83.53 73.91 77.11"/>
    <polygon class="cls-27" points="73.91 89.96 73.91 89.96 70.7 83.53 77.12 83.53 73.91 89.96"/>
    <polygon class="cls-4" points="67.48 77.11 67.48 77.11 70.7 83.53 64.27 83.53 67.48 77.11"/>
    <polygon class="cls-5" points="67.48 89.96 67.48 89.96 64.27 83.53 70.7 83.53 67.48 89.96"/>
    <polygon class="cls-11" points="61.06 77.11 61.06 77.11 64.27 83.53 57.84 83.53 61.06 77.11"/>
    <polygon class="cls-22" points="61.06 89.96 61.06 89.96 57.84 83.53 64.27 83.53 61.06 89.96"/>
    <polygon class="cls-1" points="54.63 77.11 54.63 77.11 57.84 83.53 51.42 83.53 54.63 77.11"/>
    <polygon class="cls-10" points="54.63 89.96 54.63 89.96 51.42 83.53 57.84 83.53 54.63 89.96"/>
    <polygon class="cls-25" points="48.2 77.11 48.2 77.11 51.42 83.53 44.99 83.53 48.2 77.11"/>
    <polygon class="cls-23" points="48.2 89.96 48.2 89.96 44.99 83.53 51.42 83.53 48.2 89.96"/>
    <polygon class="cls-11" points="41.78 77.11 41.78 77.11 44.99 83.53 38.56 83.53 41.78 77.11"/>
    <polygon class="cls-22" points="41.78 89.96 41.78 89.96 38.56 83.53 44.99 83.53 41.78 89.96"/>
    <polygon class="cls-7" points="35.35 77.11 35.35 77.11 38.56 83.53 32.14 83.53 35.35 77.11"/>
    <polygon class="cls-8" points="35.35 89.96 35.35 89.96 32.14 83.53 38.56 83.53 35.35 89.96"/>
    <polygon class="cls-27" points="28.93 77.11 28.93 77.11 32.14 83.53 25.72 83.53 28.93 77.11"/>
    <polygon class="cls-17" points="28.93 89.96 28.93 89.96 25.72 83.53 32.14 83.53 28.93 89.96"/>
    <polygon class="cls-7" points="22.5 89.96 22.5 89.96 19.29 83.53 25.72 83.53 22.5 89.96"/>
    <polygon class="cls-4" points="25.72 83.53 25.72 83.53 22.5 77.1 28.93 77.1 25.72 83.53"/>
    <polygon class="cls-3" points="32.14 83.53 32.14 83.53 28.93 77.1 35.35 77.1 32.14 83.53"/>
    <polygon class="cls-12" points="32.14 70.68 32.14 70.68 35.35 77.1 28.93 77.1 32.14 70.68"/>
    <polygon class="cls-2" points="38.56 83.53 38.56 83.53 35.35 77.1 41.78 77.1 38.56 83.53"/>
    <polygon class="cls-24" points="38.56 70.68 38.56 70.68 41.78 77.1 35.35 77.1 38.56 70.68"/>
    <polygon class="cls-12" points="44.99 83.53 44.99 83.53 41.78 77.1 48.2 77.1 44.99 83.53"/>
    <polygon class="cls-5" points="44.99 70.68 44.99 70.68 48.2 77.1 41.78 77.1 44.99 70.68"/>
    <polygon class="cls-4" points="51.42 83.53 51.42 83.53 48.2 77.1 54.63 77.1 51.42 83.53"/>
    <polygon class="cls-20" points="51.42 70.68 51.42 70.68 54.63 77.1 48.2 77.1 51.42 70.68"/>
    <polygon class="cls-15" points="57.84 83.53 57.84 83.53 54.63 77.1 61.06 77.1 57.84 83.53"/>
    <polygon class="cls-25" points="57.84 70.68 57.84 70.68 61.06 77.1 54.63 77.1 57.84 70.68"/>
    <polygon class="cls-3" points="64.27 83.53 64.27 83.53 61.06 77.1 67.48 77.1 64.27 83.53"/>
    <polygon class="cls-4" points="64.27 70.68 64.27 70.68 67.48 77.1 61.06 77.1 64.27 70.68"/>
    <polygon class="cls-25" points="70.7 83.53 70.7 83.53 67.48 77.1 73.91 77.1 70.7 83.53"/>
    <polygon class="cls-5" points="70.7 70.68 70.7 70.68 73.91 77.1 67.48 77.1 70.7 70.68"/>
    <polygon class="cls-11" points="77.12 83.53 77.12 83.53 73.91 77.1 80.34 77.1 77.12 83.53"/>
    <polygon class="cls-4" points="77.12 70.68 77.12 70.68 80.34 77.1 73.91 77.1 77.12 70.68"/>
    <polygon class="cls-7" points="83.55 83.53 83.55 83.53 80.34 77.1 86.76 77.1 83.55 83.53"/>
    <polygon class="cls-13" points="83.55 70.68 83.55 70.68 86.76 77.1 80.34 77.1 83.55 70.68"/>
    <polygon class="cls-27" points="89.97 83.53 89.97 83.53 86.76 77.1 93.18 77.1 89.97 83.53"/>
    <polygon class="cls-17" points="89.97 70.68 89.97 70.68 93.18 77.1 86.76 77.1 89.97 70.68"/>
    <polygon class="cls-13" points="96.4 83.53 96.4 83.53 93.18 77.1 99.61 77.1 96.4 83.53"/>
    <polygon class="cls-12" points="41.78 64.25 41.78 64.25 38.56 70.68 44.99 70.68 41.78 64.25"/>
    <polygon class="cls-20" points="41.78 77.1 41.78 77.1 44.99 70.68 38.56 70.68 41.78 77.1"/>
    <polygon class="cls-4" points="48.2 64.25 48.2 64.25 44.99 70.68 51.42 70.68 48.2 64.25"/>
    <polygon class="cls-15" points="48.2 77.1 48.2 77.1 51.42 70.68 44.99 70.68 48.2 77.1"/>
    <polygon class="cls-15" points="54.63 64.25 54.63 64.25 51.42 70.68 57.84 70.68 54.63 64.25"/>
    <polygon class="cls-22" points="54.63 77.1 54.63 77.1 57.84 70.68 51.42 70.68 54.63 77.1"/>
    <polygon class="cls-1" points="61.06 64.25 61.06 64.25 57.84 70.68 64.27 70.68 61.06 64.25"/>
    <polygon class="cls-10" points="61.06 77.1 61.06 77.1 64.27 70.68 57.84 70.68 61.06 77.1"/>
    <polygon class="cls-25" points="67.48 64.25 67.48 64.25 64.27 70.68 70.7 70.68 67.48 64.25"/>
    <polygon class="cls-23" points="67.48 77.1 67.48 77.1 70.7 70.68 64.27 70.68 67.48 77.1"/>
    <polygon class="cls-11" points="73.91 64.25 73.91 64.25 70.7 70.68 77.12 70.68 73.91 64.25"/>
    <polygon class="cls-25" points="73.91 77.1 73.91 77.1 77.12 70.68 70.7 70.68 73.91 77.1"/>
    <polygon class="cls-7" points="80.34 64.25 80.34 64.25 77.12 70.68 83.55 70.68 80.34 64.25"/>
    <polygon class="cls-8" points="80.34 77.1 80.34 77.1 83.55 70.68 77.12 70.68 80.34 77.1"/>
    <polygon class="cls-15" points="54.63 51.39 54.63 51.39 51.42 44.97 57.84 44.97 54.63 51.39"/>
    <polygon class="cls-22" points="54.63 38.55 54.63 38.55 57.84 44.97 51.42 44.97 54.63 38.55"/>
    <polygon class="cls-1" points="61.06 51.39 61.06 51.39 57.84 44.97 64.27 44.97 61.06 51.39"/>
    <polygon class="cls-10" points="61.06 38.55 61.06 38.55 64.27 44.97 57.84 44.97 61.06 38.55"/>
    <polygon class="cls-25" points="67.48 51.39 67.48 51.39 64.27 44.97 70.7 44.97 67.48 51.39"/>
    <polygon class="cls-6" points="67.48 38.55 67.48 38.55 70.7 44.97 64.27 44.97 67.48 38.55"/>
    <polygon class="cls-11" points="73.91 51.39 73.91 51.39 70.7 44.97 77.12 44.97 73.91 51.39"/>
    <polygon class="cls-25" points="51.42 44.97 51.42 44.97 54.63 38.55 48.2 38.55 51.42 44.97"/>
    <polygon class="cls-23" points="57.84 32.13 57.84 32.13 54.63 38.55 61.06 38.55 57.84 32.13"/>
    <polygon class="cls-5" points="57.84 44.97 57.84 44.97 61.06 38.55 54.63 38.55 57.84 44.97"/>
    <polygon class="cls-1" points="64.27 32.13 64.27 32.13 61.06 38.55 67.48 38.55 64.27 32.13"/>
    <polygon class="cls-11" points="64.27 44.97 64.27 44.97 67.48 38.55 61.06 38.55 64.27 44.97"/>
    <polygon class="cls-23" points="70.69 44.97 70.69 44.97 73.91 38.55 67.48 38.55 70.69 44.97"/>
    <polygon class="cls-2" points="83.55 70.68 83.55 70.68 86.76 64.25 80.34 64.25 83.55 70.68"/>
    <polygon class="cls-12" points="77.12 70.68 77.12 70.68 80.34 64.25 73.91 64.25 77.12 70.68"/>
    <polygon class="cls-20" points="77.12 57.82 77.12 57.82 73.91 64.25 80.34 64.25 77.12 57.82"/>
    <polygon class="cls-4" points="70.7 70.68 70.7 70.68 73.91 64.25 67.48 64.25 70.7 70.68"/>
    <polygon class="cls-5" points="70.7 57.82 70.7 57.82 67.48 64.25 73.91 64.25 70.7 57.82"/>
    <polygon class="cls-15" points="64.27 70.68 64.27 70.68 67.48 64.25 61.06 64.25 64.27 70.68"/>
    <polygon class="cls-22" points="64.27 57.82 64.27 57.82 61.06 64.25 67.48 64.25 64.27 57.82"/>
    <polygon class="cls-5" points="57.84 70.68 57.84 70.68 61.06 64.25 54.63 64.25 57.84 70.68"/>
    <polygon class="cls-10" points="57.84 57.82 57.84 57.82 54.63 64.25 61.06 64.25 57.84 57.82"/>
    <polygon class="cls-25" points="51.42 70.68 51.42 70.68 54.63 64.25 48.2 64.25 51.42 70.68"/>
    <polygon class="cls-23" points="51.42 57.82 51.42 57.82 48.2 64.25 54.63 64.25 51.42 57.82"/>
    <polygon class="cls-11" points="44.99 70.68 44.99 70.68 48.2 64.25 41.78 64.25 44.99 70.68"/>
    <polygon class="cls-25" points="44.99 57.82 44.99 57.82 41.78 64.25 48.2 64.25 44.99 57.82"/>
    <polygon class="cls-7" points="38.56 70.68 38.56 70.68 41.78 64.25 35.35 64.25 38.56 70.68"/>
    <polygon class="cls-20" points="41.78 64.25 41.78 64.25 44.99 57.82 38.56 57.82 41.78 64.25"/>
    <polygon class="cls-5" points="48.2 64.25 48.2 64.25 51.42 57.82 44.99 57.82 48.2 64.25"/>
    <polygon class="cls-15" points="54.63 51.39 54.63 51.39 51.42 57.82 57.84 57.82 54.63 51.39"/>
    <polygon class="cls-22" points="54.63 64.25 54.63 64.25 57.84 57.82 51.42 57.82 54.63 64.25"/>
    <polygon class="cls-1" points="61.06 51.39 61.06 51.39 57.84 57.82 64.27 57.82 61.06 51.39"/>
    <polygon class="cls-15" points="61.06 64.25 61.06 64.25 64.27 57.82 57.84 57.82 61.06 64.25"/>
    <polygon class="cls-25" points="67.48 51.39 67.48 51.39 64.27 57.82 70.7 57.82 67.48 51.39"/>
    <polygon class="cls-23" points="67.48 64.25 67.48 64.25 70.7 57.82 64.27 57.82 67.48 64.25"/>
    <polygon class="cls-11" points="73.91 51.39 73.91 51.39 70.7 57.82 77.12 57.82 73.91 51.39"/>
    <polygon class="cls-25" points="73.91 64.25 73.91 64.25 77.12 57.82 70.7 57.82 73.91 64.25"/>
    <polygon class="cls-8" points="80.34 64.25 80.34 64.25 83.55 57.82 77.12 57.82 80.34 64.25"/>
    <polygon class="cls-20" points="44.99 44.97 44.99 44.97 48.2 51.39 41.78 51.39 44.99 44.97"/>
    <polygon class="cls-20" points="83.55 44.97 83.55 44.97 86.76 51.39 80.34 51.39 83.55 44.97"/>
    <polygon class="cls-4" points="51.42 57.82 51.42 57.82 48.2 51.39 54.63 51.39 51.42 57.82"/>
    <polygon class="cls-5" points="51.42 44.97 51.42 44.97 54.63 51.39 48.2 51.39 51.42 44.97"/>
    <polygon class="cls-5" points="57.84 57.82 57.84 57.82 54.63 51.39 61.06 51.39 57.84 57.82"/>
    <polygon class="cls-22" points="57.84 44.97 57.84 44.97 61.06 51.39 54.63 51.39 57.84 44.97"/>
    <polygon class="cls-23" points="64.27 57.82 64.27 57.82 61.06 51.39 67.48 51.39 64.27 57.82"/>
    <polygon class="cls-10" points="64.27 44.97 64.27 44.97 67.48 51.39 61.06 51.39 64.27 44.97"/>
    <polygon class="cls-6" points="70.7 57.82 70.7 57.82 67.48 51.39 73.91 51.39 70.7 57.82"/>
    <polygon class="cls-23" points="70.7 44.97 70.7 44.97 73.91 51.39 67.48 51.39 70.7 44.97"/>
    <polygon class="cls-15" points="54.63 38.56 54.63 38.56 51.42 32.13 57.84 32.13 54.63 38.56"/>
    <polygon class="cls-22" points="51.42 32.13 51.42 32.13 54.63 38.56 48.2 38.56 51.42 32.13"/>
    <polygon class="cls-21" points="61.06 38.56 61.06 38.56 57.84 32.13 64.27 32.13 61.06 38.56"/>
    <polygon class="cls-10" points="61.06 25.71 61.06 25.71 64.27 32.13 57.84 32.13 61.06 25.71"/>
    <polygon class="cls-25" points="67.48 38.56 67.48 38.56 64.27 32.13 70.7 32.13 67.48 38.56"/>
    <polygon class="cls-23" points="67.48 25.71 67.48 25.71 70.7 32.13 64.27 32.13 67.48 25.71"/>
    <polygon class="cls-15" points="64.27 32.13 64.27 32.13 67.48 25.71 61.06 25.71 64.27 32.13"/>
    <polygon class="cls-22" points="64.27 19.28 64.27 19.28 61.06 25.71 67.48 25.71 64.27 19.28"/>
    <polygon class="cls-1" points="57.84 32.13 57.84 32.13 61.06 25.71 54.63 25.71 57.84 32.13"/>
    <polygon class="cls-10" points="57.84 19.28 57.84 19.28 54.63 25.71 61.06 25.71 57.84 19.28"/>
    <polygon class="cls-18" points="61.06 12.86 61.06 12.86 64.27 19.28 57.84 19.28 61.06 12.86"/>
    <polygon class="cls-5" points="61.06 25.71 61.06 25.71 57.84 19.28 64.27 19.28 61.06 25.71"/>
    <polygon class="cls-15" points="57.84 19.28 57.84 19.28 54.63 12.85 61.06 12.85 57.84 19.28"/>
    <polygon class="cls-1" points="64.27 19.28 64.27 19.28 61.06 12.85 67.48 12.85 64.27 19.28"/>
    <polygon class="cls-1" points="61.06 0 61.06 0 57.84 6.43 64.27 6.43 61.06 0"/>
    <polygon class="cls-25" points="61.06 12.85 61.06 12.85 64.27 6.43 57.84 6.43 61.06 12.85"/>
  </g>
  <g>
    <path class="cls-9" d="M112.28,69.33c-.22.52-.52.96-.92,1.31-.4.35-.87.62-1.42.8-.54.18-1.14.27-1.8.27h-6v-14.84h5.77c1.39,0,2.48.37,3.29,1.08.8.73,1.2,1.72,1.2,2.98,0,.4-.05.77-.18,1.11-.12.35-.27.65-.46.92-.19.27-.4.5-.63.69-.24.18-.48.32-.74.42.29.11.57.27.84.47.26.2.5.44.7.72.21.28.38.6.5.98.13.38.19.8.19,1.27,0,.68-.11,1.28-.34,1.8ZM109.47,59.44c-.45-.36-1.03-.55-1.75-.55h-3.34v4.26h3.34c.72,0,1.3-.18,1.75-.54.44-.36.67-.89.67-1.58s-.22-1.22-.67-1.58ZM109.74,65.79c-.41-.42-1.02-.63-1.81-.63h-3.55v4.52h3.55c.79,0,1.39-.21,1.81-.64.42-.42.63-.97.63-1.63s-.21-1.21-.63-1.62Z"/>
    <path class="cls-9" d="M124.16,71.71l-1.03-2.98h-5.85l-1.02,2.98h-2.39l5.44-14.84h1.81l5.44,14.84h-2.4ZM120.26,60.25l-2.31,6.59h4.57l-2.26-6.59Z"/>
    <path class="cls-9" d="M137.46,71.71l-6.85-10.44v10.44h-2.25v-14.84h2.06l6.85,10.42v-10.42h2.26v14.84h-2.07Z"/>
    <path class="cls-9" d="M152.99,68.38c-.2.66-.54,1.24-1.03,1.77-.58.6-1.2,1.02-1.88,1.29-.68.27-1.41.4-2.21.4s-1.5-.14-2.14-.41c-.65-.27-1.24-.66-1.75-1.17-.36-.35-.64-.74-.83-1.15-.19-.4-.34-.84-.43-1.31-.09-.47-.14-1-.15-1.58-.02-.57-.02-1.22-.02-1.92s0-1.35.02-1.93c0-.58.06-1.1.15-1.57.09-.47.23-.91.43-1.31.19-.4.47-.79.83-1.15.51-.51,1.1-.91,1.74-1.18.65-.27,1.37-.41,2.16-.41s1.49.13,2.11.37c.62.24,1.15.57,1.6.99.46.42.82.9,1.1,1.46.27.56.47,1.15.58,1.79h-2.27c-.2-.82-.56-1.45-1.09-1.91-.53-.45-1.21-.68-2.04-.68-.44,0-.85.08-1.23.25-.37.16-.69.39-.96.67-.18.19-.32.41-.45.64-.11.23-.2.52-.28.85-.06.34-.1.76-.13,1.25-.02.49-.04,1.11-.04,1.87s.02,1.37.04,1.88c.03.5.08.92.13,1.26.07.34.16.62.28.86.12.23.27.44.45.63.27.28.59.5.96.66.38.16.79.24,1.23.24.49,0,.93-.09,1.36-.27.42-.18.77-.44,1.07-.77.27-.32.47-.67.58-1.04.11-.37.17-.81.17-1.29v-.83h-3.17v-1.9h5.42v2.27c0,.95-.1,1.76-.3,2.41Z"/>
    <path class="cls-9" d="M156.29,71.71v-14.84h2.25v12.82h7.15v2.02h-9.4Z"/>
    <path class="cls-9" d="M176.48,71.71l-1.02-2.98h-5.86l-1.02,2.98h-2.4l5.44-14.84h1.81l5.44,14.84h-2.39ZM172.57,60.25l-2.32,6.59h4.57l-2.25-6.59Z"/>
    <path class="cls-9" d="M191.19,65.83c0,.56-.05,1.1-.14,1.63-.08.53-.23,1.03-.43,1.52-.21.49-.51.93-.92,1.34-.47.47-1.04.82-1.68,1.05-.65.23-1.37.34-2.15.34h-5.21v-14.84h5.21c.78,0,1.49.12,2.15.35.65.22,1.21.58,1.68,1.05.41.4.71.84.92,1.31.2.46.35.95.43,1.45.09.51.13,1.02.14,1.55,0,.53.02,1.07.02,1.61s0,1.09-.02,1.65ZM188.85,61.59c-.07-.7-.3-1.27-.69-1.7-.61-.67-1.46-1-2.52-1h-2.74v10.8h2.74c1.06,0,1.91-.33,2.52-1,.39-.43.62-1.03.69-1.8.07-.77.11-1.67.11-2.7s-.04-1.89-.11-2.59Z"/>
    <path class="cls-9" d="M194.23,71.71v-14.84h9.48v2.02h-7.23v4.34h6.17v2h-6.17v4.46h7.23v2.02h-9.48Z"/>
    <path class="cls-9" d="M215.36,69.31c-.27.54-.63,1-1.11,1.38-.47.38-1.03.66-1.68.86-.65.2-1.37.29-2.15.29-1.13,0-2.1-.15-2.94-.44-.83-.29-1.6-.8-2.31-1.52l1.5-1.49c.54.55,1.12.92,1.73,1.12.61.2,1.3.3,2.06.3.97,0,1.73-.2,2.26-.6.54-.4.81-.96.81-1.68,0-.68-.2-1.19-.59-1.53-.19-.18-.4-.31-.62-.4-.22-.09-.56-.16-1-.23l-1.75-.25c-1.2-.17-2.14-.57-2.81-1.19-.73-.68-1.08-1.63-1.08-2.84,0-.64.11-1.22.33-1.76.23-.53.56-1,.98-1.39.43-.39.94-.69,1.55-.89.61-.21,1.31-.32,2.08-.32.99,0,1.84.14,2.56.4.73.27,1.41.7,2.04,1.3l-1.43,1.41c-.47-.45-.96-.75-1.5-.91-.54-.16-1.12-.24-1.73-.24-.88,0-1.55.22-2.02.66-.46.43-.7.99-.7,1.66,0,.28.05.53.14.77.09.22.23.43.43.62.39.34.94.57,1.66.69l1.69.24c.69.11,1.25.25,1.66.43.42.17.79.4,1.11.68.4.36.71.8.9,1.31.2.51.31,1.09.31,1.73,0,.68-.13,1.29-.4,1.83Z"/>
    <path class="cls-9" d="M226.74,71.71v-6.48h-6.03v6.48h-2.25v-14.84h2.25v6.34h6.03v-6.34h2.24v14.84h-2.24Z"/>
  </g>
  <g>
    <path class="cls-14" d="M16.36,118.8c-.2.43-.5.8-.89,1.1-.37.29-.82.53-1.34.68-.52.16-1.09.24-1.71.24-.91,0-1.69-.12-2.36-.36-.66-.23-1.27-.63-1.85-1.21l1.19-1.18c.45.43.9.73,1.39.89.49.16,1.04.24,1.65.24.78,0,1.38-.16,1.81-.47.42-.33.65-.77.65-1.34s-.17-.96-.48-1.24c-.15-.14-.32-.25-.5-.31s-.45-.12-.81-.18l-1.39-.2c-.96-.14-1.72-.46-2.24-.96-.58-.53-.88-1.29-.88-2.26,0-.5.1-.98.28-1.4.19-.43.43-.8.78-1.11.34-.31.75-.55,1.24-.71.49-.17,1.04-.25,1.67-.25.79,0,1.46.1,2.04.32.57.22,1.12.55,1.63,1.03l-1.15,1.14c-.37-.37-.76-.61-1.19-.73-.43-.12-.89-.19-1.39-.19-.69,0-1.24.18-1.61.53-.37.35-.56.8-.56,1.33,0,.22.04.42.12.61.08.18.18.34.33.5.31.27.77.45,1.34.54l1.35.2c.55.09,1.01.21,1.33.35.33.14.63.32.89.54.32.29.56.64.72,1.06.16.42.24.87.24,1.38,0,.55-.1,1.03-.32,1.47Z"/>
    <path class="cls-14" d="M23.81,120.72l-2.37-3.9-1.25,1.42v2.48h-1.69v-11.87h1.69v7.32l3.28-3.9h2.05l-2.92,3.31,3.31,5.14h-2.1Z"/>
    <path class="cls-14" d="M27.17,110.61v-1.8h1.8v1.8h-1.8ZM27.22,120.72v-8.45h1.7v8.45h-1.7Z"/>
    <path class="cls-14" d="M33.48,120.72c-.4,0-.75-.07-1.04-.2-.3-.12-.54-.29-.72-.5-.2-.21-.34-.47-.42-.74-.09-.28-.13-.58-.13-.89v-9.53h1.7v9.43c0,.33.06.58.19.74.14.17.38.24.72.24h.75v1.46h-1.05Z"/>
    <path class="cls-14" d="M38.26,120.72c-.4,0-.75-.07-1.05-.2-.29-.12-.53-.29-.72-.5-.19-.21-.32-.47-.42-.74-.09-.28-.13-.58-.13-.89v-9.53h1.7v9.43c0,.33.06.58.2.74.14.17.37.24.71.24h.75v1.46h-1.05Z"/>
    <path class="cls-14" d="M41.62,116.99c0,.73.19,1.3.55,1.73.36.43.9.64,1.59.64.48,0,.87-.07,1.17-.21.28-.14.59-.36.88-.65l1.09,1.01c-.22.23-.44.41-.66.57-.21.17-.44.3-.7.4-.24.12-.52.21-.81.25-.29.06-.62.09-.99.09-.53,0-1.03-.08-1.49-.23-.46-.15-.87-.4-1.2-.73-.34-.34-.62-.78-.82-1.33-.2-.56-.3-1.23-.3-2.04,0-1.37.33-2.44.99-3.19.65-.74,1.52-1.12,2.61-1.12.56,0,1.08.09,1.52.29.45.2.81.49,1.12.84.31.35.55.78.7,1.28.17.5.24,1.05.24,1.64v.76h-5.48ZM45.36,115.18c-.03-.16-.09-.33-.17-.53-.14-.32-.34-.58-.63-.77-.28-.2-.64-.29-1.04-.29s-.74.09-1.04.29c-.3.2-.51.45-.65.77-.08.19-.14.37-.16.53-.04.17-.04.37-.06.63h3.81c0-.26-.04-.46-.07-.63Z"/>
    <path class="cls-14" d="M53.78,120.72v-.9c-.31.38-.65.65-1,.78-.34.15-.77.22-1.23.22-.42,0-.82-.07-1.17-.21-.37-.14-.65-.31-.89-.55-.22-.21-.39-.46-.53-.73-.11-.28-.22-.58-.28-.89-.06-.33-.1-.65-.11-.98-.02-.34-.04-.67-.04-.99s.03-.65.04-.98c.01-.34.05-.66.11-.96.07-.32.17-.61.28-.89.14-.29.3-.52.53-.73.24-.23.52-.41.88-.55.35-.14.74-.2,1.15-.2.46,0,.86.06,1.23.2.36.13.69.38,1,.74v-4.27h1.7v11.87h-1.67ZM53.69,115.42c-.04-.34-.12-.64-.24-.89-.12-.26-.29-.47-.53-.62-.24-.14-.53-.22-.9-.22-.4,0-.7.08-.93.22-.23.15-.4.36-.53.62-.14.25-.23.55-.26.89-.04.34-.06.7-.06,1.07s.02.74.06,1.07c.04.34.13.64.26.9.13.26.3.47.53.62.23.15.53.23.93.23.37,0,.67-.08.9-.23.24-.15.42-.36.53-.62.13-.25.2-.56.24-.9.03-.34.07-.7.07-1.07s-.03-.73-.07-1.07Z"/>
    <path class="cls-14" d="M57.7,120.72v-2.03h2.04v2.03h-2.04Z"/>
    <path class="cls-14" d="M65.77,120.72v-11.87h7.58v1.62h-5.78v3.47h4.92v1.6h-4.92v3.57h5.78v1.61h-7.58Z"/>
    <path class="cls-14" d="M80.02,124.14v-4.29c-.31.37-.63.62-.99.75-.36.15-.77.22-1.22.22-.43,0-.81-.07-1.17-.21-.35-.14-.65-.31-.87-.55-.22-.21-.39-.46-.53-.73-.11-.28-.21-.58-.28-.89-.07-.33-.12-.65-.13-.98,0-.34-.02-.67-.02-.99s.01-.65.02-.98c.01-.34.07-.66.13-.96.06-.32.16-.61.28-.89.13-.29.31-.52.53-.73.22-.23.52-.41.88-.55.35-.14.76-.2,1.17-.2.47,0,.88.06,1.22.2.36.14.68.4,1.02.8v-.9h1.66v11.87h-1.71ZM79.98,115.42c-.04-.34-.13-.64-.25-.89-.12-.26-.3-.47-.53-.62-.24-.14-.55-.22-.92-.22-.39,0-.69.08-.93.22-.22.15-.41.36-.54.62-.12.25-.21.55-.25.89-.04.34-.06.7-.06,1.07s.02.74.06,1.07c.04.34.12.64.25.9.13.26.31.47.54.62.24.15.54.23.93.23.37,0,.68-.08.92-.23.23-.15.41-.36.53-.62.12-.25.2-.56.25-.9.04-.34.05-.7.05-1.07s-.01-.73-.05-1.07Z"/>
    <path class="cls-14" d="M89.12,120.72v-.85c-.29.32-.63.56-1.02.71-.39.16-.8.24-1.23.24s-.83-.07-1.17-.21c-.35-.14-.65-.32-.91-.56-.32-.32-.55-.68-.66-1.08-.12-.39-.18-.83-.18-1.31v-5.4h1.69v5.15c0,.65.17,1.13.5,1.43.33.3.72.44,1.21.44.23,0,.45-.04.67-.11.22-.07.41-.18.57-.33.15-.17.27-.36.37-.59.09-.24.14-.52.14-.84v-5.15h1.7v8.45h-1.67Z"/>
    <path class="cls-14" d="M93.04,110.61v-1.8h1.8v1.8h-1.8ZM93.09,120.72v-8.45h1.69v8.45h-1.69Z"/>
    <path class="cls-14" d="M103.98,117.48c-.02.33-.07.65-.13.98-.07.31-.17.61-.3.89-.13.27-.3.52-.5.73-.23.24-.53.41-.89.55-.35.14-.74.21-1.16.21-.46,0-.86-.07-1.21-.22-.35-.14-.69-.39-1-.75v4.29h-1.7v-11.87h1.66v.9c.32-.39.66-.65,1.02-.8.35-.14.76-.2,1.22-.2.42,0,.81.06,1.17.2.36.13.66.32.89.55.21.21.38.45.5.73.12.27.23.57.3.89.06.31.11.63.13.96.02.33.02.66.02.98s0,.65-.02.99ZM102.23,115.42c-.03-.34-.11-.64-.23-.89-.12-.26-.29-.47-.53-.62-.23-.14-.55-.22-.92-.22s-.69.08-.93.22c-.22.15-.39.36-.52.62-.13.25-.21.55-.25.89-.05.34-.06.7-.06,1.07s.01.74.06,1.07c.04.34.12.64.25.9.13.26.3.47.52.62.25.15.55.23.93.23s.69-.08.92-.23c.23-.15.4-.36.53-.62.12-.25.2-.56.23-.9.05-.34.07-.7.07-1.07s-.01-.73-.07-1.07Z"/>
    <path class="cls-14" d="M112.78,117.48c-.01.33-.05.65-.12.98-.07.31-.16.61-.29.89-.13.27-.3.52-.51.73-.23.24-.53.41-.88.55-.36.14-.74.21-1.17.21-.46,0-.87-.07-1.22-.22-.36-.14-.69-.39-.99-.75v4.29h-1.71v-11.87h1.68v.9c.32-.39.65-.65,1-.8.35-.14.76-.2,1.23-.2.42,0,.81.06,1.17.2.36.13.66.32.89.55.21.21.38.45.51.73.13.27.22.57.29.89.07.31.11.63.12.96.02.33.03.66.03.98s0,.65-.03.99ZM111.05,115.42c-.03-.34-.11-.64-.25-.89-.11-.26-.3-.47-.51-.62-.25-.14-.55-.22-.93-.22s-.7.08-.93.22c-.22.15-.4.36-.53.62-.13.25-.21.55-.25.89-.04.34-.05.7-.05,1.07s0,.74.05,1.07c.04.34.12.64.25.9.13.26.31.47.53.62.23.15.54.23.93.23s.68-.08.93-.23c.21-.15.4-.36.51-.62.14-.25.21-.56.25-.9.04-.34.06-.7.06-1.07s-.02-.73-.06-1.07Z"/>
    <path class="cls-14" d="M115.98,116.99c0,.73.17,1.3.55,1.73.35.43.9.64,1.59.64.48,0,.87-.07,1.16-.21.3-.14.59-.36.89-.65l1.08,1.01c-.22.23-.44.41-.66.57-.21.17-.44.3-.69.4-.25.12-.53.21-.83.25-.29.06-.61.09-.98.09-.54,0-1.04-.08-1.49-.23-.46-.15-.86-.4-1.2-.73-.35-.34-.63-.78-.83-1.33-.2-.56-.3-1.23-.3-2.04,0-1.37.33-2.44.98-3.19.66-.74,1.53-1.12,2.61-1.12.57,0,1.07.09,1.51.29.45.2.84.49,1.13.84.31.35.54.78.69,1.28.16.5.25,1.05.25,1.64v.76h-5.47ZM119.71,115.18c-.02-.16-.09-.33-.18-.53-.13-.32-.33-.58-.63-.77-.29-.2-.63-.29-1.04-.29s-.74.09-1.03.29c-.3.2-.53.45-.64.77-.09.19-.15.37-.16.53-.03.17-.05.37-.05.63h3.8c-.01-.26-.04-.46-.07-.63Z"/>
    <path class="cls-14" d="M128.13,120.72v-.9c-.31.38-.65.65-1,.78-.35.15-.77.22-1.22.22-.42,0-.81-.07-1.17-.21-.37-.14-.66-.31-.89-.55-.22-.21-.4-.46-.51-.73-.13-.28-.22-.58-.29-.89-.07-.33-.11-.65-.13-.98-.01-.34-.03-.67-.03-.99s.02-.65.03-.98c.02-.34.06-.66.13-.96.07-.32.16-.61.29-.89.11-.29.29-.52.51-.73.23-.23.52-.41.87-.55.35-.14.75-.2,1.17-.2.46,0,.86.06,1.21.2.36.13.69.38,1,.74v-4.27h1.71v11.87h-1.68ZM128.04,115.42c-.03-.34-.12-.64-.24-.89-.12-.26-.3-.47-.53-.62-.24-.14-.53-.22-.93-.22s-.69.08-.91.22c-.24.15-.41.36-.54.62-.13.25-.22.55-.25.89-.03.34-.05.7-.05,1.07s.02.74.05,1.07c.04.34.12.64.25.9.13.26.3.47.54.62.22.15.53.23.91.23s.69-.08.93-.23c.23-.15.41-.36.53-.62.12-.25.2-.56.24-.9.04-.34.06-.7.06-1.07s-.02-.73-.06-1.07Z"/>
    <path class="cls-14" d="M132.05,120.72v-2.03h2.03v2.03h-2.03Z"/>
    <path class="cls-14" d="M148.55,116.02c0,.44-.05.88-.11,1.3-.07.42-.18.82-.36,1.21-.16.4-.4.75-.72,1.07-.38.38-.83.66-1.36.84-.52.18-1.09.28-1.71.28h-4.16v-11.87h4.16c.63,0,1.2.1,1.71.28.52.19.98.46,1.36.84.32.32.56.67.72,1.04.17.37.29.77.36,1.16.06.41.11.82.11,1.24.01.42.01.85.01,1.29s0,.86-.01,1.31ZM146.67,112.63c-.05-.56-.23-1.02-.56-1.35-.48-.53-1.14-.8-2.01-.8h-2.18v8.63h2.18c.87,0,1.53-.27,2.01-.8.33-.34.5-.83.56-1.45.07-.61.09-1.33.09-2.15s-.02-1.52-.09-2.08Z"/>
    <path class="cls-14" d="M150.56,110.61v-1.8h1.8v1.8h-1.8ZM150.62,120.72v-8.45h1.7v8.45h-1.7Z"/>
    <path class="cls-14" d="M160.81,122.1c-.16.44-.41.81-.71,1.13-.31.32-.69.55-1.13.74-.45.18-.96.27-1.52.27-.64,0-1.2-.09-1.64-.24-.44-.17-.9-.46-1.33-.87l1.09-1.08c.26.25.53.44.79.57.27.12.61.17,1.04.17.35,0,.66-.05.9-.17.26-.11.46-.27.62-.47.16-.2.28-.43.36-.68.07-.26.1-.53.1-.81v-1.09c-.31.37-.64.62-1.01.76-.36.13-.75.2-1.17.2s-.81-.07-1.15-.2c-.35-.14-.63-.32-.87-.55-.42-.42-.67-.91-.78-1.49-.11-.57-.17-1.22-.17-1.95s.06-1.37.17-1.95c.11-.58.37-1.06.78-1.48.49-.5,1.15-.74,2.03-.74.45,0,.86.06,1.2.2.37.14.69.4,1.02.8v-.9h1.64v8.4c0,.52-.08,1-.25,1.43ZM159.3,115.37c-.03-.32-.09-.6-.22-.85-.12-.25-.3-.46-.52-.61-.24-.14-.54-.22-.93-.22s-.69.08-.92.22c-.23.15-.4.36-.52.61-.12.25-.2.53-.23.85-.04.31-.06.65-.06.98s.02.66.06.98c.03.32.11.6.23.84.11.25.28.46.52.6.23.15.54.23.92.23s.69-.08.93-.23c.21-.14.4-.35.52-.6.13-.24.19-.53.22-.84.04-.32.06-.65.06-.98s-.02-.67-.06-.98Z"/>
    <path class="cls-14" d="M163.31,110.61v-1.8h1.8v1.8h-1.8ZM163.36,120.72v-8.45h1.7v8.45h-1.7Z"/>
    <path class="cls-14" d="M169.87,120.72c-.39,0-.75-.07-1.03-.2-.29-.13-.53-.31-.71-.52-.19-.22-.33-.48-.44-.75-.08-.29-.14-.58-.14-.87v-4.65h-.97v-1.31h.97v-2.55h1.71v2.55h1.62v1.31h-1.62v4.56c0,.32.07.56.22.73.15.18.38.25.71.25h.69v1.46h-1.01Z"/>
    <path class="cls-14" d="M177.12,120.72v-.77c-.31.31-.63.52-.97.66-.33.14-.75.21-1.28.21s-.98-.06-1.34-.2c-.36-.12-.67-.31-.93-.57-.43-.46-.66-1.08-.66-1.81s.25-1.3.73-1.75c.48-.45,1.21-.68,2.2-.68h2.22v-.6c0-.53-.14-.94-.43-1.2-.27-.26-.75-.39-1.42-.39-.47,0-.84.07-1.1.19-.28.12-.52.34-.75.64l-1.12-1.05c.4-.47.82-.79,1.29-.96.46-.16,1.03-.25,1.74-.25,2.32,0,3.49.96,3.49,2.9v5.65h-1.67ZM177.08,116.99h-1.97c-.51,0-.88.1-1.12.32-.26.21-.4.51-.4.9s.13.68.39.88c.25.21.63.31,1.17.31.32,0,.6-.02.85-.08.27-.05.51-.18.72-.4.25-.25.37-.67.37-1.25v-.68Z"/>
    <path class="cls-14" d="M183.27,120.72c-.4,0-.75-.07-1.05-.2-.29-.12-.53-.29-.73-.5-.18-.21-.33-.47-.41-.74-.09-.28-.15-.58-.15-.89v-9.53h1.71v9.43c0,.33.06.58.2.74.13.17.37.24.71.24h.75v1.46h-1.04Z"/>
    <path class="cls-14" d="M192.52,120.72l-2.49-5h-2.24v5h-1.8v-11.87h4.59c.57,0,1.08.09,1.52.26.46.18.83.41,1.15.71.32.32.57.69.74,1.1.17.43.27.89.27,1.4,0,.86-.23,1.54-.69,2.08-.45.52-1.02.88-1.69,1.07l2.74,5.25h-2.1ZM191.9,110.96c-.37-.33-.85-.49-1.46-.49h-2.65v3.73h2.65c.61,0,1.09-.16,1.46-.48.37-.33.56-.78.56-1.38s-.19-1.06-.56-1.39Z"/>
    <path class="cls-14" d="M197.55,116.99c0,.73.19,1.3.55,1.73.37.43.9.64,1.61.64.48,0,.85-.07,1.16-.21.29-.14.59-.36.88-.65l1.09,1.01c-.23.23-.44.41-.67.57-.2.17-.44.3-.69.4-.26.12-.53.21-.82.25-.3.06-.62.09-.99.09-.52,0-1.02-.08-1.49-.23-.46-.15-.87-.4-1.21-.73-.34-.34-.6-.78-.81-1.33-.2-.56-.31-1.23-.31-2.04,0-1.37.33-2.44.99-3.19.65-.74,1.52-1.12,2.6-1.12.58,0,1.08.09,1.52.29.45.2.82.49,1.12.84.31.35.54.78.7,1.28.17.5.25,1.05.25,1.64v.76h-5.48ZM201.29,115.18c-.04-.16-.08-.33-.17-.53-.14-.32-.35-.58-.64-.77-.27-.2-.63-.29-1.03-.29-.38,0-.74.09-1.03.29-.3.2-.51.45-.64.77-.09.19-.15.37-.16.53-.02.17-.05.37-.06.63h3.8c0-.26-.03-.46-.06-.63Z"/>
    <path class="cls-14" d="M209.42,120.72v-.77c-.31.31-.63.52-.96.66-.34.14-.76.21-1.29.21s-.98-.06-1.34-.2c-.36-.12-.67-.31-.93-.57-.44-.46-.66-1.08-.66-1.81s.24-1.3.72-1.75c.49-.45,1.21-.68,2.19-.68h2.22v-.6c0-.53-.15-.94-.42-1.2-.28-.26-.76-.39-1.42-.39-.47,0-.84.07-1.1.19-.27.12-.52.34-.74.64l-1.12-1.05c.4-.47.83-.79,1.28-.96.46-.16,1.05-.25,1.74-.25,2.31,0,3.49.96,3.49,2.9v5.65h-1.68ZM209.38,116.99h-1.98c-.49,0-.88.1-1.14.32-.25.21-.38.51-.38.9s.12.68.37.88c.25.21.65.31,1.17.31.33,0,.62-.02.87-.08.25-.05.48-.18.71-.4.25-.25.36-.67.36-1.25v-.68Z"/>
    <path class="cls-14" d="M218.14,120.72v-.9c-.33.38-.66.65-1.01.78-.35.15-.76.22-1.22.22s-.81-.07-1.18-.21c-.36-.14-.66-.31-.89-.55-.22-.21-.38-.46-.51-.73-.13-.28-.23-.58-.29-.89-.07-.33-.11-.65-.13-.98-.02-.34-.02-.67-.02-.99s0-.65.02-.98c.02-.34.06-.66.13-.96.07-.32.16-.61.29-.89.13-.29.29-.52.51-.73.23-.23.53-.41.88-.55.36-.14.74-.2,1.16-.2.46,0,.87.06,1.21.2.35.13.7.38,1.01.74v-4.27h1.7v11.87h-1.66ZM218.05,115.42c-.05-.34-.12-.64-.24-.89-.13-.26-.31-.47-.54-.62-.23-.14-.55-.22-.92-.22s-.69.08-.93.22c-.23.15-.4.36-.53.62-.11.25-.21.55-.25.89-.04.34-.06.7-.06,1.07s.01.74.06,1.07c.04.34.13.64.25.9.13.26.31.47.53.62.24.15.54.23.93.23s.69-.08.92-.23c.23-.15.4-.36.54-.62.12-.25.19-.56.24-.9.03-.34.05-.7.05-1.07s-.02-.73-.05-1.07Z"/>
    <path class="cls-14" d="M224.75,122.4c-.14.45-.36.8-.61,1.05-.23.23-.5.39-.8.48-.31.09-.61.13-.94.13h-.68v-1.52h.43c.37,0,.62-.07.78-.19.18-.12.32-.36.44-.71l.46-1.32-2.94-8.06h1.8l2.01,5.94,1.97-5.94h1.82l-3.74,10.13Z"/>
    <path class="cls-14" d="M228.37,120.72v-2.03h2.03v2.03h-2.03Z"/>
  </g>
  <g>
    <path class="cls-9" d="M103.44,45.52c0,.56-.05,1.1-.14,1.62-.08.53-.23,1.03-.44,1.52-.21.49-.51.93-.91,1.33-.47.48-1.04.83-1.69,1.05-.66.23-1.36.34-2.15.34h-5.21v-14.83h5.21c.78,0,1.49.12,2.15.34.65.24,1.22.58,1.69,1.05.41.4.7.84.91,1.31.21.46.36.95.44,1.46.09.51.13,1.02.14,1.55,0,.53,0,1.06,0,1.61s0,1.09,0,1.64ZM101.09,41.28c-.07-.7-.29-1.27-.69-1.7-.61-.67-1.45-1-2.52-1h-2.72v10.8h2.72c1.07,0,1.91-.34,2.52-1,.4-.43.62-1.03.69-1.8.07-.77.11-1.67.11-2.7s-.04-1.9-.11-2.59Z"/>
    <path class="cls-9" d="M106.46,51.39v-14.83h2.26v14.83h-2.26Z"/>
    <path class="cls-9" d="M122.19,48.08c-.2.65-.54,1.24-1.03,1.76-.57.6-1.2,1.03-1.88,1.29-.68.26-1.42.39-2.2.39s-1.5-.14-2.15-.41c-.65-.27-1.24-.66-1.75-1.17-.36-.36-.64-.74-.83-1.15-.2-.4-.34-.84-.43-1.31-.09-.47-.15-1-.16-1.57-.01-.58-.01-1.22-.01-1.93s0-1.35.01-1.93c0-.58.07-1.1.16-1.57.09-.48.23-.91.43-1.31.19-.4.47-.79.83-1.15.52-.51,1.09-.91,1.74-1.18.65-.27,1.36-.4,2.16-.4s1.49.12,2.11.36c.62.24,1.15.58,1.61.99.45.41.82.9,1.09,1.45.28.56.47,1.15.58,1.8h-2.28c-.19-.82-.55-1.46-1.08-1.91-.53-.45-1.21-.68-2.04-.68-.45,0-.86.08-1.24.25-.37.16-.7.39-.96.67-.18.19-.33.41-.44.64-.12.23-.21.51-.27.85-.07.34-.11.75-.14,1.25-.03.49-.05,1.12-.05,1.87s.01,1.37.05,1.88c.02.5.07.92.14,1.27.06.34.15.62.27.85.11.23.27.45.44.63.26.28.58.5.96.66.38.16.79.24,1.24.24.48,0,.93-.09,1.35-.27.41-.18.77-.44,1.06-.77.28-.32.47-.67.58-1.04.11-.38.17-.81.17-1.29v-.84h-3.16v-1.89h5.42v2.26c0,.96-.1,1.76-.3,2.41Z"/>
    <path class="cls-9" d="M125.5,51.39v-14.83h2.25v14.83h-2.25Z"/>
    <path class="cls-9" d="M136.33,38.58v12.81h-2.25v-12.81h-4.08v-2.02h10.41v2.02h-4.08Z"/>
    <path class="cls-9" d="M149.94,51.39l-1.02-2.97h-5.85l-1.02,2.97h-2.39l5.44-14.83h1.81l5.44,14.83h-2.4ZM146.04,39.93l-2.31,6.59h4.56l-2.25-6.59Z"/>
    <path class="cls-9" d="M154.13,51.39v-14.83h2.25v12.82h7.15v2.02h-9.4Z"/>
  </g>
</svg>