<?xml version="1.0" encoding="utf-8"?>
<!-- Generator: Adobe Illustrator 28.2.0, SVG Export Plug-In . SVG Version: 6.00 Build 0)  -->
<svg version="1.1" id="Layer_1" xmlns="http://www.w3.org/2000/svg" xmlns:xlink="http://www.w3.org/1999/xlink" x="0px" y="0px"
	 viewBox="0 0 360 360" style="enable-background:new 0 0 360 360;" xml:space="preserve">
<style type="text/css">
	.st0{fill:#34894E;}
	.st1{fill:#34398C;}
	.st2{fill:#26AAE4;}
	.st3{fill:#F9EB33;}
	.st4{fill:#CC2D2E;}
	.st5{fill:#43A757;}
	.st6{fill:#304D94;}
	.st7{fill:#38B3E2;}
	.st8{fill:#FDFDFC;}
	.st9{font-family:'TimesNewRomanPSMT';}
	.st10{font-size:7.9065px;}
	.st11{fill:#760B0D;}
	.st12{fill:none;stroke:#000000;stroke-width:0.75;}
	.st13{fill:#267E44;}
</style>
<g>
	<g>
		<path class="st0" d="M255.97,232.81c-5.2,0.01-10.39,0.01-15.59,0.05c-0.66,0.01-1.01-0.33-1.39-0.75
			c-8.81-9.96-14.86-21.29-16.91-34.54c-2.87-18.53,1.37-35.66,10.42-51.81c0.02-0.03,0.06-0.05,0.08-0.06
			c4.02,6.05,10.23,8.29,16.91,9.57c5.56,1.07,11.09,0.73,16.51-0.96c0.11-0.04,0.25,0,0.5,0c-2.25,2.43-4.31,4.89-6.23,7.46
			c-1.43-0.91-2.45-2.21-3.37-3.74c-0.31,0.46-0.55,0.8-0.77,1.15c-3.6,5.74-6.36,11.86-8.37,18.31
			c-3.28,10.5-4.31,21.17-2.17,32.03c1.68,8.52,5.3,16.18,10.38,23.18l-0.05,0.06L255.97,232.81z"/>
		<path class="st1" d="M255.97,232.7c-5.08-7-8.7-14.66-10.38-23.18c-2.14-10.87-1.11-21.53,2.17-32.03
			c2.02-6.45,4.78-12.58,8.37-18.31c0.22-0.35,0.46-0.69,0.77-1.15c0.91,1.53,1.93,2.83,3.37,3.74c2.82,2.36,6.19,3.54,9.7,4.34
			c5.06,1.16,10.1,1.04,15.1-0.42c0.2-0.06,0.41-0.06,0.79-0.1c-2.21,2.48-4.3,4.85-6.04,7.49c-0.94-0.62-1.53-1.56-2.13-2.47
			c-0.13,0.09-0.22,0.12-0.27,0.19c-0.2,0.28-0.39,0.57-0.56,0.86c-4.27,6.99-7.23,14.49-8.7,22.56
			c-2.19,12.07-0.46,23.48,5.8,34.12c0.89,1.51,1.86,2.97,2.79,4.46c-6.85,0.01-13.7,0.01-20.56,0.02
			C256.12,232.76,256.04,232.73,255.97,232.7z"/>
		<path class="st2" d="M276.75,232.77c-0.93-1.48-1.9-2.95-2.79-4.46c-6.27-10.63-7.99-22.05-5.8-34.12
			c1.46-8.07,4.43-15.57,8.7-22.56c0.18-0.29,0.37-0.58,0.56-0.86c0.05-0.07,0.14-0.1,0.27-0.19c0.6,0.91,1.18,1.86,2.13,2.47
			c2.44,2.33,5.5,3.41,8.68,4.13c4.41,1,8.81,0.82,13.41-0.53c-2.3,2.45-4.17,4.89-5.97,7.4c-0.26-0.32-0.52-0.64-0.79-0.97
			c-8.76,13-12.94,33.27-0.61,49.73C288.61,232.87,282.68,232.96,276.75,232.77z"/>
		<path class="st3" d="M294.54,232.82c-12.33-16.45-8.15-36.73,0.61-49.73c0.27,0.33,0.53,0.65,0.79,0.97
			c1.98,2.49,4.8,3.48,7.73,4.23c1.71,0.44,3.46,0.56,5.23,0.54c1.77-0.02,3.47-0.39,5.42-0.84c-1.2,1.5-2.3,2.79-3.3,4.14
			c-0.85,1.15-1.85,2.23-2.25,3.67c0,0,0.02-0.02,0.02-0.02c-0.32,0.06-0.47,0.21-0.28,0.53l0.02-0.02
			c-0.32-0.12-0.23,0.11-0.24,0.27c-0.8,1.75-1.78,3.42-2.51,5.21c-1.71,4.21-2.78,8.55-2.87,13.09c-0.13,6.6,1.85,12.56,5.75,17.88
			c-3.16,0.25-6.33,0.05-9.49,0.1C297.62,232.88,296.08,232.84,294.54,232.82z"/>
		<path class="st4" d="M308.66,232.76c-3.89-5.33-5.88-11.29-5.75-17.88c0.09-4.54,1.16-8.88,2.87-13.09
			c0.73-1.8,1.71-3.46,2.51-5.21c0.08-0.09,0.16-0.18,0.24-0.27l-0.02,0.02c0.25-0.09,0.32-0.29,0.28-0.53c0,0-0.02,0.02-0.02,0.02
			c0.19,0.1,0.29-0.36,0.6,0.01c2.98,3.6,7.03,4.24,11.38,3.96c0.8-0.05,1.59-0.26,2.67-0.44c-9,10.3-10.37,21.32-3.99,33.41
			C315.79,232.76,312.22,232.76,308.66,232.76z"/>
		<path class="st5" d="M246.05,135.99c-0.01-6.12,4.9-11.1,10.97-11.12c6.03-0.02,11.02,5,11.03,11.07
			c0.01,6.11-4.91,11.07-10.98,11.09C250.96,147.04,246.06,142.13,246.05,135.99z"/>
		<path class="st6" d="M277.82,159.21c-5.26-0.01-9.39-4.11-9.42-9.36c-0.03-5.24,4.23-9.52,9.46-9.51
			c5.21,0.01,9.51,4.35,9.44,9.54C287.23,155.12,283.07,159.21,277.82,159.21z"/>
		<path class="st7" d="M302.9,163.61c0.01,4.4-3.42,7.9-7.76,7.92c-4.37,0.02-7.97-3.55-7.98-7.91c-0.01-4.28,3.57-7.82,7.9-7.82
			C299.47,155.8,302.89,159.2,302.9,163.61z"/>
		<path class="st3" d="M309.12,171.23c3.49,0.01,6.33,2.86,6.28,6.3c-0.05,3.48-2.87,6.24-6.37,6.22c-3.55-0.02-6.22-2.74-6.21-6.31
			C302.83,173.9,305.55,171.22,309.12,171.23z"/>
		<path class="st4" d="M324.28,191.39c-0.02,2.6-2.07,4.65-4.65,4.66c-2.63,0.01-4.7-2.1-4.68-4.76c0.01-2.59,2.06-4.63,4.66-4.63
			C322.27,186.64,324.29,188.7,324.28,191.39z"/>
		<path class="st2" d="M255.97,232.7c0.08,0.03,0.15,0.07,0.22,0.1c-0.08,0-0.15,0.01-0.22,0.01c0,0-0.05-0.05-0.05-0.05
			L255.97,232.7z"/>
		<path class="st8" d="M308.79,195.79c0.04,0.25-0.03,0.44-0.28,0.53C308.33,196,308.47,195.85,308.79,195.79z"/>
		<path class="st8" d="M308.53,196.3c-0.08,0.09-0.16,0.18-0.24,0.27C308.3,196.41,308.21,196.17,308.53,196.3z"/>
		<text transform="matrix(1 0 0 1 218.6501 250.2372)" class="st9 st10">National Skills Development Authority</text>
	</g>
	<g>
		<g>
			<path class="st11" d="M85.09,150.69V123.5c-0.57-0.71-1.13-1.44-1.68-2.17c-0.14,0.19-0.28,0.39-0.42,0.58v28.78H85.09z"/>
			<path class="st11" d="M83,226.85v27.19c0.57,0.71,1.13,1.44,1.68,2.17c0.14-0.19,0.28-0.39,0.42-0.58v-28.78H83z"/>
			<path class="st11" d="M51.38,169.17l-24.02-13.53c-0.4,0.06-0.8,0.12-1.2,0.18c0.28,0.67,0.55,1.34,0.81,2.01L50.35,171
				L51.38,169.17z"/>
			<path class="st11" d="M116.71,208.36l24.02,13.53c0.4-0.06,0.8-0.12,1.2-0.18c-0.28-0.67-0.55-1.34-0.81-2.01l-23.38-13.16
				L116.71,208.36z"/>
			<path class="st11" d="M50.57,206.96l-24.1,13.97c-0.24,0.59-0.48,1.17-0.73,1.74c0.53,0.06,1.06,0.12,1.58,0.19l24.3-14.09
				L50.57,206.96z"/>
			<path class="st11" d="M140.76,154.68l-24.3,14.08l1.05,1.81l24.1-13.97c0.24-0.58,0.48-1.17,0.73-1.74
				C141.82,154.81,141.29,154.75,140.76,154.68z"/>
			<path class="st11" d="M79.54,150.95l-2.88-21.4c-0.34,0.36-0.68,0.72-1.03,1.08l2.76,20.47L79.54,150.95z"/>
			<path class="st11" d="M88.55,226.59l2.88,21.4c0.34-0.36,0.68-0.72,1.03-1.08l-2.76-20.47L88.55,226.59z"/>
			<path class="st11" d="M48.88,174.14l-19.05-7.58c0.13,0.46,0.25,0.93,0.37,1.4l18.25,7.27L48.88,174.14z"/>
			<path class="st11" d="M119.21,203.39l19.05,7.58c-0.13-0.47-0.25-0.93-0.37-1.4l-18.25-7.27L119.21,203.39z"/>
			<path class="st11" d="M53.59,211.63l-16.75,12.98c0.48,0.12,0.95,0.24,1.43,0.37l16.04-12.43L53.59,211.63z"/>
			<path class="st11" d="M114.5,165.9l16.75-12.98c-0.48-0.12-0.95-0.24-1.43-0.37l-16.04,12.43L114.5,165.9z"/>
			<path class="st11" d="M74.53,151.89l-4.4-16.05c-0.32,0.28-0.65,0.55-0.98,0.83l4.26,15.53L74.53,151.89z"/>
			<path class="st11" d="M93.56,225.65l4.4,16.04c0.32-0.28,0.65-0.55,0.98-0.83l-4.26-15.53L93.56,225.65z"/>
			<path class="st11" d="M47.24,178.97l-15.58-3.89c0.07,0.42,0.13,0.83,0.19,1.25l15.1,3.78L47.24,178.97z"/>
			<path class="st11" d="M120.85,198.57l15.58,3.89c-0.07-0.42-0.13-0.83-0.19-1.25l-15.1-3.78L120.85,198.57z"/>
			<path class="st11" d="M56.91,215.49l-11.53,11.71c0.4,0.14,0.8,0.29,1.2,0.44l11.16-11.34L56.91,215.49z"/>
			<path class="st11" d="M111.18,162.04l11.53-11.71c-0.4-0.14-0.8-0.29-1.2-0.44l-11.16,11.34L111.18,162.04z"/>
			<path class="st11" d="M69.69,153.49l-5.51-12.96c-0.32,0.23-0.64,0.47-0.97,0.69l5.41,12.73L69.69,153.49z"/>
			<path class="st11" d="M98.4,224.05l5.51,12.96c0.32-0.23,0.64-0.47,0.97-0.69l-5.4-12.72L98.4,224.05z"/>
			<path class="st11" d="M46.26,183.97l-13.73-1.53c0.03,0.39,0.05,0.79,0.07,1.18l13.53,1.51L46.26,183.97z"/>
			<path class="st11" d="M121.83,193.57l13.73,1.53c-0.03-0.39-0.05-0.79-0.08-1.18l-13.53-1.51L121.83,193.57z"/>
			<path class="st11" d="M60.72,218.88l-8.4,11.19c0.36,0.17,0.72,0.34,1.07,0.51l8.25-11L60.72,218.88z"/>
			<path class="st11" d="M107.37,158.66l8.4-11.19c-0.36-0.17-0.72-0.34-1.08-0.51l-8.25,11L107.37,158.66z"/>
			<path class="st11" d="M65.11,155.72l-6.74-11.36c-0.17,0.1-0.34,0.21-0.52,0.32c-0.16,0.1-0.32,0.18-0.48,0.28l6.74,11.36
				L65.11,155.72z"/>
			<path class="st11" d="M102.98,221.81l6.74,11.36c0.17-0.1,0.34-0.21,0.52-0.32c0.16-0.1,0.32-0.18,0.48-0.28l-6.74-11.36
				L102.98,221.81z"/>
			<path class="st11" d="M45.96,189.05l-13.2,0.3c0,0.39-0.01,0.78-0.01,1.17l13.24-0.3L45.96,189.05z"/>
			<path class="st11" d="M122.13,188.48l13.2-0.3c0-0.39,0.01-0.78,0.01-1.17l-13.24,0.3L122.13,188.48z"/>
			<path class="st11" d="M64.95,221.72l-6.44,11.52c0.06,0.03,0.12,0.06,0.17,0.1c0.28,0.16,0.56,0.33,0.83,0.49l6.45-11.54
				L64.95,221.72z"/>
			<path class="st11" d="M103.14,155.81l6.44-11.52c-0.06-0.03-0.12-0.06-0.17-0.1c-0.28-0.16-0.56-0.33-0.83-0.49l-6.45,11.54
				L103.14,155.81z"/>
			<path class="st11" d="M60.87,158.54l-8.57-10.83c-0.36,0.18-0.71,0.35-1.07,0.52l8.73,11.04L60.87,158.54z"/>
			<path class="st11" d="M107.22,218.99l8.57,10.83c0.36-0.18,0.71-0.35,1.07-0.52l-8.73-11.04L107.22,218.99z"/>
			<path class="st11" d="M46.34,194.13l-13.91,2.2c-0.04,0.4-0.07,0.8-0.11,1.2l14.2-2.24L46.34,194.13z"/>
			<path class="st11" d="M121.75,183.4l13.91-2.2c0.04-0.4,0.07-0.8,0.11-1.2l-14.2,2.24L121.75,183.4z"/>
			<path class="st11" d="M69.52,223.97l-5.1,12.93c0.33,0.22,0.66,0.45,0.98,0.68l5.2-13.18L69.52,223.97z"/>
			<path class="st11" d="M98.57,153.56l5.1-12.93c-0.33-0.22-0.66-0.45-0.98-0.68l-5.2,13.18L98.57,153.56z"/>
			<path class="st11" d="M57.04,161.91l-11.57-11.16c-0.4,0.16-0.8,0.32-1.19,0.47l11.96,11.54L57.04,161.91z"/>
			<path class="st11" d="M111.05,215.63l11.57,11.16c0.4-0.16,0.8-0.32,1.19-0.47l-11.96-11.53L111.05,215.63z"/>
			<path class="st11" d="M47.39,199.12l-15.97,4.78c-0.08,0.43-0.16,0.86-0.25,1.29l16.55-4.95L47.39,199.12z"/>
			<path class="st11" d="M120.7,178.42l15.97-4.78c0.08-0.43,0.16-0.86,0.25-1.29l-16.55,4.95L120.7,178.42z"/>
			<path class="st11" d="M74.35,225.6l-3.9,15.8c0.33,0.27,0.67,0.54,1,0.82l4.04-16.34L74.35,225.6z"/>
			<path class="st11" d="M93.74,151.94l3.9-15.8c-0.33-0.27-0.67-0.55-1-0.82l-4.04,16.34L93.74,151.94z"/>
			<path class="st11" d="M53.7,165.75l-16.61-12.2c-0.48,0.13-0.96,0.26-1.44,0.39l17.36,12.75L53.7,165.75z"/>
			<path class="st11" d="M114.39,211.78l16.61,12.2c0.48-0.13,0.96-0.26,1.44-0.39l-17.36-12.75L114.39,211.78z"/>
			<path class="st11" d="M49.1,203.92l-19.8,8.95c-0.15,0.49-0.29,0.99-0.45,1.48l20.73-9.37L49.1,203.92z"/>
			<path class="st11" d="M118.99,173.61l19.8-8.95c0.15-0.49,0.29-0.99,0.45-1.48l-20.73,9.37L118.99,173.61z"/>
			<path class="st11" d="M79.35,226.56l-2.27,20.85c0.36,0.36,0.71,0.72,1.05,1.09l2.37-21.81L79.35,226.56z"/>
			<path class="st11" d="M88.74,150.97L91,130.12c-0.36-0.36-0.71-0.72-1.05-1.09l-2.37,21.81L88.74,150.97z"/>
		</g>
		
			<ellipse transform="matrix(0.9239 -0.3827 0.3827 0.9239 -65.8408 46.5318)" class="st12" cx="84.05" cy="188.77" rx="38.08" ry="38.08"/>
		<g>
			<g>
				<g>
					<path class="st13" d="M53.41,180.58c-0.86,2.99-1.11,6.12-1.08,9.21l0.81-1.07c0.1-1.46,0.06-2.94,0.35-4.39l0.26,0.04
						c0.08,1.5,0.74,2.93,1.51,4.15l1.18-1.02c0.18-1.54,1.21-2.47,2.75-2.74l0.5-0.36l-4.8-0.85c0.04-0.44,0.2-0.82,0.54-1.11
						c0.32-0.3,0.67-0.43,1.03-0.41c-0.14,0.14-0.24,0.31-0.29,0.51c-0.04,0.14-0.05,0.3-0.05,0.47c0.16,0.34,0.37,0.53,0.63,0.58
						c0.22,0.04,0.43-0.02,0.62-0.19c0.19-0.17,0.34-0.36,0.4-0.6c0.08-0.32,0.04-0.62-0.14-0.91c-0.18-0.28-0.42-0.47-0.72-0.55
						c-0.59-0.16-1.2-0.07-1.83,0.31c-0.68,0.4-1.14,0.98-1.23,1.73l-0.19-0.03c0.15-1.2,0.55-2.35,0.82-3.52L53.41,180.58z
						 M55.54,186.68c-0.43-0.78-0.64-1.5-0.75-2.16l2.47,0.35C56.55,185.25,55.9,185.85,55.54,186.68z"/>
					<path class="st13" d="M54.63,176.86l-0.21,0.58c-0.14,0.06-0.29,0.1-0.45,0.1c-0.08,0-0.22-0.01-0.44-0.03l-0.56,0.44
						c0.46,0.16,1.11,0.33,1.96,0.53c-0.67,0.22-1.21,0.67-1.36,1.39c-0.05,0.2-0.11,0.52-0.19,0.96l1.03-0.79
						c0.07-0.42,0.28-0.73,0.56-0.93c0.28-0.21,0.58-0.25,0.89-0.14l4.23,1.47l1.1-0.46l-5.96-2.3c0.18-0.49,0.34-0.98,0.59-1.44
						C55.4,176.43,55,176.63,54.63,176.86z"/>
					<path class="st13" d="M58.19,168.8c-1.89,0.48-3.31,1.59-4.18,3.09c-0.4,0.61-0.48,1.39-0.44,2.2c0.06,0.86,0.33,1.37,0.8,1.58
						c0.19,0.09,0.49,0.01,0.88-0.21c-0.29,0.58-0.56,1.17-0.76,1.79c0.39-0.23,0.74-0.46,1.14-0.66l0.43-0.9l4.84,2.26l1.09-0.42
						l-5.47-2.79c0.2-0.45,0.43-0.89,0.7-1.3c-0.42,0.16-0.85,0.32-1.24,0.51l-0.33,0.68l-0.5,0.03c-0.3-0.2-0.45-0.65-0.44-1.35
						c-0.01-0.65,0.2-1.17,0.46-1.63c0.44-0.7,0.97-1.33,1.73-1.75c0.14-0.09,0.86-0.43,2.1-0.94L58.19,168.8z"/>
					<path class="st13" d="M59.84,168.26c-1.53,1.82-2.88,3.81-3.97,5.93c0.4-0.2,0.8-0.39,1.23-0.54c0.76-1.3,1.55-2.57,2.5-3.75
						l0.15,0.12c-0.61,1.35-0.88,2.93-0.85,4.58l1.55-0.25c0.47-0.73,1.03-1.17,1.64-1.31c0.31-0.09,0.81-0.1,1.47-0.01
						c0.58,0.08,1.02,0.05,1.35-0.07l-4.69-3.88l0.95-1.05L59.84,168.26z M62.27,173.44c-0.21,0.05-0.39,0.16-0.51,0.33
						c-0.11,0.18-0.14,0.37-0.09,0.57c0.04,0.2,0.15,0.35,0.31,0.45c0.17,0.11,0.36,0.13,0.56,0.07c0.21-0.05,0.36-0.17,0.47-0.34
						c0.12-0.15,0.15-0.33,0.11-0.52c-0.04-0.19-0.14-0.35-0.29-0.46C62.67,173.42,62.48,173.39,62.27,173.44z M60.13,173.13
						c0-0.91,0.24-1.69,0.51-2.44l2.1,1.63C61.9,172.3,60.97,172.53,60.13,173.13z"/>
					<path class="st13" d="M65.69,162.92l-0.21,0.15c-0.28,0.21-0.52,0.18-0.72-0.08l-0.09-0.2l-1,0.01c0.39,0.5,1,1.18,1.83,2.07
						c-0.96-0.49-1.93-0.3-2.84,0.55c-0.5,0.47-0.88,0.96-1.01,1.56c-0.16,0.67-0.04,1.16,0.34,1.51c0.16,0.15,0.38,0.22,0.65,0.23
						c0.27,0,0.49-0.08,0.66-0.27c0.11-0.13,0.22-0.36,0.34-0.69c0.12-0.34,0.22-0.55,0.3-0.62c0.12-0.11,0.21-0.13,0.27-0.06
						c0.08,0.09,0.09,0.42,0.04,0.98c-0.04,0.44-0.1,0.77-0.14,1.08c0.44-0.02,0.92,0.01,1.37,0.03c0.07-1.31,0-2.2-0.32-2.57
						c-0.24-0.28-0.53-0.39-0.9-0.35c-0.34,0.05-0.68,0.23-1.01,0.54c-0.14,0.12-0.26,0.28-0.39,0.45
						c-0.03-0.47,0.19-0.91,0.63-1.31c0.37-0.34,0.86-0.48,1.47-0.39c0.58,0.1,0.99,0.33,1.25,0.66l1.9,2.48l1.4,0.33l-3.77-5.13
						c0.42-0.3,0.8-0.63,1.24-0.89C66.57,162.93,66.14,162.93,65.69,162.92z"/>
					<path class="st13" d="M72.86,158.07c-1.87-0.64-3.64-0.39-5.19,0.37c-0.63,0.36-1.15,0.93-1.54,1.64
						c-0.41,0.75-0.46,1.32-0.17,1.75c0.12,0.18,0.41,0.27,0.86,0.3c-0.57,0.32-1.07,0.73-1.59,1.12l1.32,0.05
						c0.26-0.21,0.56-0.36,0.84-0.54l2.88,4.49l1.16,0.24l-3.14-5.28c0.43-0.25,0.83-0.53,1.28-0.74c-0.45-0.11-0.87-0.14-1.31-0.21
						l-0.65,0.39l-0.44-0.24c-0.15-0.33-0.04-0.79,0.35-1.37c0.34-0.55,0.77-0.93,1.25-1.15c0.74-0.36,1.55-0.55,2.4-0.56
						c0.17,0,0.96,0.1,2.29,0.34L72.86,158.07z"/>
					<path class="st13" d="M74.55,158.48c-2.26,0.77-4.48,1.68-6.52,2.92l1.32,0.18c1.36-0.64,2.69-1.36,4.12-1.82l0.06,0.18
						c-1.25,0.79-2.3,2.04-3.17,3.4l1.45,0.63c0.81-0.32,1.48-0.47,2.09-0.24c0.31,0.1,0.73,0.36,1.25,0.79
						c0.45,0.38,0.84,0.6,1.18,0.67l-1.89-5.78c0.44-0.18,0.91-0.27,1.36-0.4L74.55,158.48z M73.83,164.15
						c-0.21-0.08-0.4-0.06-0.6,0.03c-0.18,0.09-0.31,0.23-0.38,0.42c-0.07,0.19-0.06,0.37,0.02,0.54c0.08,0.18,0.23,0.3,0.44,0.37
						c0.21,0.07,0.4,0.06,0.58-0.03c0.17-0.09,0.29-0.23,0.36-0.4c0.07-0.18,0.07-0.36,0-0.54
						C74.18,164.36,74.04,164.23,73.83,164.15z M72.19,162.78c0.48-0.79,1.09-1.33,1.73-1.8l0.91,2.5
						C74.13,163,73.21,162.67,72.19,162.78z"/>
					<path class="st13" d="M87.32,156.24c-1.41-1.23-3.1-2.02-4.82-1.86c-0.72,0.04-1.44,0.26-2.1,0.74
						c-0.69,0.53-0.98,1.05-0.91,1.55c0.03,0.21,0.25,0.42,0.64,0.62l-1.92,0.29l1.17,0.66l0.99-0.15l0.63,5.3
						c0.32,0.21,0.63,0.45,0.94,0.71l-0.52-6.12l1.47-0.08l-1.09-0.78l-0.76,0.04l-0.29-0.42c0.01-0.36,0.31-0.71,0.91-1.04
						c0.55-0.3,1.1-0.47,1.62-0.49c0.82-0.07,1.63,0.19,2.39,0.57c0.15,0.08,0.83,0.45,1.91,1.24L87.32,156.24z"/>
					<path class="st13" d="M90.19,157.64c-0.45-0.1-0.67-0.35-0.65-0.74c-0.17-0.2-0.41-0.42-0.71-0.69
						c-0.08,0.84-0.15,1.74-0.19,2.7c-0.6-1.09-1.14-1.69-1.53-1.72c-0.73-0.04-1.36,0.23-1.85,0.81c-0.13-0.27-0.35-0.49-0.67-0.68
						c-0.32-0.2-0.67-0.29-1.03-0.26l-1.98,0.1l1.1,0.77c0.06,0,0.17-0.01,0.32-0.02c0.14-0.01,0.25-0.01,0.33-0.02
						c0.62-0.05,1.04,0.14,1.25,0.51c-0.33,0.09-0.61,0.27-0.84,0.55c-0.23,0.27-0.34,0.55-0.33,0.82c0.01,0.24,0.1,0.46,0.29,0.64
						c0.19,0.18,0.41,0.26,0.68,0.28c0.45,0.02,0.81-0.15,1.11-0.53c0.27,0.37,0.59,0.56,0.97,0.58c0.66,0.01,1.02-0.18,1.09-0.78
						c0.04-0.36-0.24-0.86-0.91-1.3c0.11-0.19,0.33-0.29,0.65-0.25c0.21,0.03,0.45,0.23,0.7,0.61c0.25,0.37,0.36,0.65,0.33,0.84
						l-0.58,3.67l0.72,0.95l1.09-6.1c0.5,0.06,1,0.16,1.49,0.3C90.74,158.34,90.48,157.95,90.19,157.64z"/>
					<path class="st13" d="M99.82,161.25c-3.11-1.78-6.52-3.02-10.05-3.68c0.32,0.33,0.62,0.65,0.91,1.02l1.05,0.27
						c0.25,0.22,0.36,0.4,0.34,0.55l-0.16-0.02l-0.08-0.02c-0.45,0.02-0.72,0.24-0.82,0.68c-0.06,0.23-0.02,0.46,0.11,0.69
						c0.13,0.23,0.32,0.37,0.57,0.44c0.25,0.06,0.49,0.04,0.73-0.06c0.24-0.11,0.4-0.26,0.48-0.46c0.1-0.01,0.18-0.01,0.23,0.01
						c0.2,0.07,0.36,0.21,0.46,0.41c0.1,0.2,0.12,0.38,0.05,0.56l-0.09,0.17c-0.31-0.12-0.59-0.14-0.86-0.07
						c-0.26,0.07-0.44,0.26-0.52,0.52c-0.07,0.24-0.04,0.44,0.09,0.67c0.12,0.22,0.31,0.38,0.56,0.47c0.41,0.15,0.76,0.1,1.06-0.15
						c0.29,0.3,0.47,0.67,0.53,1.13c0.02,0.22,0.01,0.64-0.04,1.26l0.2,0.77l1.92-4.07c0.13,0.03,0.28,0.08,0.44,0.16
						c0.26,0.13,0.48,0.27,0.64,0.43c0.23,0.22,0.3,0.41,0.2,0.59l-0.05,0.07c-0.08-0.19-0.3-0.37-0.66-0.55
						c-0.14-0.07-0.3-0.06-0.49,0.02c-0.18,0.08-0.3,0.18-0.36,0.3c-0.11,0.23-0.08,0.46,0.09,0.7c0.14,0.19,0.35,0.35,0.63,0.48
						c0.3,0.13,0.56,0.18,0.84,0.04c0.22-0.11,0.42-0.29,0.58-0.57c0.24-0.41,0.25-0.86,0.03-1.35c-0.23-0.48-0.63-0.82-1.15-1.08
						l-0.31-0.15l0.28-0.59c1.08,0.48,2.12,1.04,3.11,1.69L99.82,161.25z M94.44,162.53c0.14-0.46,0.1-0.95-0.16-1.48
						c-0.23-0.49-0.6-0.92-1.1-1.28c-0.13-0.1-0.23-0.15-0.29-0.21c-0.03-0.18-0.06-0.32-0.09-0.42c0.47,0.1,0.91,0.29,1.36,0.45
						c-0.06,0.45,0.05,0.9,0.33,1.34c0.27,0.45,0.64,0.76,1.09,1.04l-0.66,1.53C94.85,163.11,94.68,162.82,94.44,162.53z M95.79,161
						c-0.68-0.25-0.93-0.56-0.74-0.94l0.06-0.13c0.38,0.15,0.78,0.27,1.15,0.44l-0.3,0.69L95.79,161z"/>
					<path class="st13" d="M103.13,163.44l-0.49-0.37c-0.02-0.15-0.02-0.31,0.02-0.47c0.02-0.08,0.07-0.22,0.15-0.42l-0.27-0.67
						c-0.27,0.4-0.61,0.99-1.02,1.76c-0.02-0.73-0.39-1.26-1.01-1.64c-0.17-0.11-0.46-0.26-0.86-0.45l0.48,1.23
						c0.37,0.2,0.63,0.46,0.77,0.77c0.14,0.31,0.11,0.6-0.08,0.88l-2.51,3.7l0.14,1.2l3.76-5.17l1.25,0.93L103.13,163.44z"/>
					<path class="st13" d="M109.34,169.65c-0.58-0.82-1.46-1.2-2.53-1.11c-0.93,0.07-1.68,0.42-2.28,0.99
						c-0.55,0.51-0.91,1.11-1.11,1.77c-0.26,0.8-0.11,1.39,0.29,1.97c0.19,0.25,0.44,0.4,0.76,0.45c0.32,0.05,0.61,0,0.86-0.18
						c0.15-0.11,0.26-0.28,0.31-0.5c0.05-0.22,0.02-0.42-0.1-0.58c-0.43-0.57-0.85-0.68-1.26-0.34c-0.1,0.08-0.16,0.21-0.19,0.39
						c-0.13-0.35-0.13-0.7,0.07-1.12c0.16-0.34,0.39-0.65,0.7-0.92c0.61-0.54,1.33-0.81,2.17-0.77c0.87,0.06,1.63,0.5,2.29,1.25
						L109.34,169.65z"/>
					<path class="st13" d="M113.02,175.85c-1.05-2.28-2.29-4.48-3.86-6.44l-0.04,1.32c0.94,1.27,1.75,2.63,2.47,4.04l-0.18,0.09
						c-1.01-1.13-2.33-2.06-3.81-2.72c-0.13,0.5-0.26,0.99-0.44,1.5c0.33,0.63,0.48,1.23,0.47,1.79c-0.01,0.43-0.17,0.94-0.47,1.49
						l-0.88,1.47l5.76-2.7c0.21,0.48,0.49,0.93,0.65,1.44C112.82,176.69,112.92,176.27,113.02,175.85z M108.37,173.92
						c0.77,0.45,1.48,0.92,1.97,1.48l-2.27,1.16C108.45,175.78,108.53,174.91,108.37,173.92z"/>
					<path class="st13" d="M114.4,179.48c-0.04-0.2-0.13-0.39-0.2-0.58c0.07-0.14,0.16-0.26,0.28-0.36
						c0.06-0.05,0.18-0.13,0.36-0.25l0.15-0.69c-0.46,0.17-1.07,0.44-1.85,0.83c0.39-0.6,0.45-1.26,0.2-1.94
						c-0.08-0.19-0.24-0.47-0.47-0.86c-0.1,0.43-0.18,0.84-0.3,1.26c0.17,0.39,0.21,0.76,0.13,1.09c-0.08,0.33-0.28,0.55-0.59,0.67
						l-4.21,1.52l-0.55,1.04l6.08-1.97c0.2,0.48,0.28,1,0.42,1.5L114.4,179.48z"/>
					<path class="st13" d="M115.72,187.44c-0.04-2.83-0.66-5.63-1.44-8.34c-0.13,0.41-0.34,0.84-0.51,1.25
						c0.21,0.95,0.55,1.87,0.66,2.84c-0.77,0.09-1.16,0.15-1.19,0.15c-1.3,0.25-1.89,0.73-1.78,1.46c0.04,0.28,0.22,0.6,0.53,0.98
						c0.28,0.36,0.51,0.62,0.75,0.76c-0.16,0.16-0.33,0.24-0.51,0.26c-0.39,0.03-0.74-0.16-1.03-0.53
						c-0.25-0.34-0.48-0.72-0.53-1.15c-0.14-0.82,0.16-1.54,0.75-2.19c0.47-0.53,1.1-0.94,1.9-1.21l0.14-0.8
						c-1.26,0.51-2.2,1.04-2.83,1.58c-0.91,0.83-1.36,1.76-1.19,2.88c0.14,0.72,0.37,1.27,0.84,1.66c0.44,0.37,1.03,0.55,1.74,0.52
						c0.41-0.02,0.82-0.16,1.22-0.45c0.4-0.29,0.68-0.66,0.82-1.1c-0.25-0.24-0.54-0.46-0.82-0.67c-0.35-0.29-0.57-0.56-0.65-0.82
						l2.02-0.3c0.28,1.42,0.27,2.87,0.36,4.31L115.72,187.44z"/>
					<path class="st13" d="M118.78,188.74c-1.01-1.74-1.93-3.36-3.15-4.81c0.11,0.78,0.27,1.55,0.28,2.34
						c0.92,1.11,1.93,2.31,2.74,3.62L118.78,188.74z"/>
				</g>
			</g>
		</g>
		<g>
			<g>
				<g>
					<path class="st13" d="M69.49,210.73c-1.89-1.18-3.51-2.73-5.06-4.32l0.06,1.23c1,1.1,2.16,2.02,3.32,2.95l-0.12,0.16
						c-1.32-0.57-2.87-0.96-4.49-1.49l-0.07,1.66c0.53,0.65,1.01,1.17,1.25,1.79c0.2,0.48,0.32,1.06,0.38,1.76
						c0.02,0.66,0.12,1.26,0.22,1.9l3.62-5.23l1.24,0.81L69.49,210.73z M64.49,210.96c0.96,0.22,1.78,0.47,2.49,0.75l-1.53,2.05
						C65.35,212.83,65.03,211.9,64.49,210.96z"/>
					<path class="st13" d="M72.47,212.45l-0.48-0.25c-0.04-0.14-0.04-0.29-0.02-0.45c0.01-0.07,0.05-0.22,0.11-0.42l-0.26-0.56
						c-0.24,0.43-0.53,1.03-0.86,1.83c-0.09-0.68-0.4-1.17-0.92-1.55c-0.15-0.1-0.4-0.24-0.75-0.42l0.35,1.19
						c0.35,0.19,0.57,0.47,0.72,0.75c0.14,0.29,0.14,0.58-0.02,0.87l-2.18,3.91l0.6,1.3l2.92-5.69c0.44,0.22,0.85,0.47,1.3,0.66
						C72.77,213.25,72.62,212.83,72.47,212.45z"/>
					<path class="st13" d="M75.71,214.61c-0.23-0.35-0.52-0.67-0.95-0.83c-0.4-0.16-0.8-0.15-1.24,0.01
						c-0.43,0.16-0.73,0.41-0.89,0.76c-0.16,0.36-0.13,0.75,0.1,1.16c0.23,0.41,0.59,0.72,1.06,0.9c0.45,0.17,0.88,0.21,1.3-0.01
						c0.41-0.19,0.67-0.48,0.78-0.85C75.99,215.36,75.93,214.98,75.71,214.61z M75.85,220.94c-1.43-2.04-2.44-3.74-3.33-4.98
						l-0.64,1.5c1.24,1.5,2.49,2.92,3.76,4.29L75.85,220.94z M74.47,215.67c-0.29,0.1-0.58,0.09-0.86-0.03
						c-0.18-0.07-0.22-0.2-0.14-0.4c0.09-0.22,0.28-0.39,0.57-0.51c0.29-0.12,0.55-0.13,0.81-0.03c0.2,0.08,0.26,0.24,0.18,0.47
						C74.94,215.4,74.76,215.57,74.47,215.67z"/>
					<path class="st13" d="M83.44,215.12c-2.53-0.04-5.03-0.5-7.44-1.23l0.72,1.06c1.72,0.52,3.51,0.8,5.3,0.93l-0.07,0.98
						c-0.29-0.44-0.64-0.64-1.06-0.7c-0.17-0.03-0.34,0-0.53,0.1c-0.19,0.09-0.34,0.2-0.46,0.33c-0.36-0.46-0.81-0.74-1.4-0.83
						c-0.51-0.06-0.93-0.03-1.35,0.28c-0.36,0.26-0.61,0.6-0.72,1.04c-0.14,0.5-0.04,0.97,0.31,1.4c0.35,0.45,0.87,0.74,1.57,0.83
						c0.34,0.06,0.66,0.03,0.97-0.07c0.31-0.1,0.48-0.27,0.51-0.5c0.04-0.27-0.02-0.52-0.18-0.77c-0.18-0.28-0.43-0.44-0.74-0.49
						c-0.25-0.04-0.49,0-0.72,0.11c-0.23,0.11-0.37,0.27-0.41,0.47c-0.02,0.09-0.02,0.18,0,0.28c-0.35-0.17-0.48-0.45-0.42-0.73
						c0.06-0.25,0.23-0.44,0.49-0.55c0.27-0.14,0.57-0.19,0.88-0.14c0.37,0.06,0.67,0.22,0.91,0.48c0.24,0.26,0.38,0.54,0.41,0.85
						l0.62-0.09c-0.02-0.24-0.03-0.4-0.02-0.48c0.03-0.29,0.2-0.38,0.5-0.38c0.19,0.01,0.36,0.09,0.52,0.23
						c0.16,0.15,0.24,0.3,0.22,0.44l-0.25,3.32l1.13,0.87l0.24-6.21c0.48,0.01,0.96,0.09,1.44,0.04
						C84.09,215.72,83.76,215.41,83.44,215.12z"/>
					<path class="st13" d="M86.92,215l-0.54,0.03c-0.11-0.11-0.19-0.23-0.26-0.38c-0.03-0.07-0.08-0.21-0.14-0.42l-0.52-0.35
						c0.03,0.49,0.11,1.16,0.25,2.01c-0.44-0.55-0.97-0.81-1.61-0.77c-0.18,0-0.47,0-0.86,0.01c0.3,0.28,0.61,0.59,0.93,0.84
						c0.4-0.05,0.73,0.02,1.01,0.2c0.28,0.18,0.43,0.43,0.45,0.76l0.25,4.47l1.21,0.81l-0.57-6.36c0.49,0,0.97-0.11,1.45-0.18
						L86.92,215z"/>
					<path class="st13" d="M91.04,214.17c-1.45,0.47-2.98,0.64-4.48,0.84c0.34,0.28,0.69,0.49,1.04,0.71l1.83-0.3
						c-0.64,1-0.95,1.98-0.8,2.94c0.11,0.74,0.42,1.36,0.96,1.85c0.65,0.59,1.5,0.86,2.43,0.57c0.43-0.12,0.78-0.32,1.04-0.61
						c0.26-0.29,0.34-0.58,0.25-0.87c-0.06-0.21-0.23-0.38-0.5-0.5c-0.27-0.12-0.54-0.14-0.82-0.07c-0.26,0.07-0.49,0.21-0.69,0.42
						c-0.2,0.21-0.27,0.41-0.23,0.61c0.05,0.22,0.19,0.37,0.43,0.47c-0.39,0.06-0.77-0.1-1.12-0.46c-0.3-0.31-0.48-0.62-0.54-0.94
						c-0.34-1.87,0.48-3.21,2.28-4.18L91.04,214.17z"/>
					<path class="st13" d="M97.18,211.64c-2.05,1.08-4.16,2.11-6.44,2.61l1.16,0.54l0.68-0.19l1.04,3.14c0.5,0.18,1,0.31,1.52,0.47
						c0.14-1.29,0.76-2.24,1.68-3.24c0.1,0.48,0.23,0.91,0.4,1.27c0.24,0.5,0.75,1.2,1.57,2.06l1-0.15
						c-0.66-0.72-1.06-1.26-1.24-1.6c-0.39-0.74-0.49-1.75-0.41-2.98l-1.67-0.11c-0.37,0.36-0.71,0.88-1.13,1.37
						c-0.34,0.46-0.69,0.93-1.07,1.41l-0.75-2c1.71-0.62,3.35-1.44,4.89-2.41C98,211.77,97.61,211.75,97.18,211.64z"/>
					<path class="st13" d="M103.01,207.07c-0.31,0.27-0.62,0.28-0.92,0.03c-0.24,0-0.53,0.03-0.87,0.06
						c0.6,0.59,1.25,1.21,1.98,1.83c-1.18-0.17-1.94-0.27-2.2-0.04c-0.5,0.41-0.72,0.98-0.71,1.75c-0.25-0.12-0.57-0.19-0.91-0.16
						c-0.35,0.02-0.65,0.12-0.92,0.29c-0.5,0.31-0.96,0.69-1.5,0.93c0.42,0.11,0.84,0.19,1.24,0.23c0.05-0.03,0.13-0.09,0.25-0.17
						c0.11-0.07,0.19-0.13,0.25-0.17c0.49-0.32,0.91-0.39,1.28-0.22c-0.21,0.27-0.33,0.57-0.38,0.92c-0.05,0.35-0.01,0.64,0.14,0.87
						c0.13,0.2,0.33,0.33,0.61,0.38c0.28,0.05,0.55-0.02,0.8-0.18c0.43-0.28,0.66-0.67,0.65-1.19c0.46,0.08,0.86-0.02,1.19-0.29
						c0.58-0.48,0.68-0.94,0.29-1.38c-0.25-0.28-0.8-0.36-1.61-0.25c-0.05-0.21,0.04-0.42,0.28-0.61c0.16-0.13,0.46-0.16,0.91-0.11
						c0.43,0.03,0.72,0.11,0.84,0.25l2.49,2.76l1.43-0.25l-4.39-4.38l1.01-1.01L103.01,207.07z"/>
				</g>
			</g>
		</g>
		<g>
			<g>
				<path class="st13" d="M58.86,202.15c0,1.14-0.92,2.06-2.06,2.06c-1.14,0-2.06-0.92-2.06-2.06s0.92-2.06,2.06-2.06
					C57.94,200.09,58.86,201.02,58.86,202.15z"/>
			</g>
			<g>
				<path class="st13" d="M113.34,202.15c0,1.14-0.92,2.06-2.06,2.06c-1.14,0-2.06-0.92-2.06-2.06s0.92-2.06,2.06-2.06
					C112.42,200.09,113.34,201.02,113.34,202.15z"/>
			</g>
		</g>
		<g>
			<path class="st13" d="M69.21,201.24c-0.18,0-0.45,0-0.81,0c0.09,0.14,0.13,0.33,0.13,0.57c0,0.2-0.1,0.39-0.29,0.55
				c-0.19,0.16-0.42,0.25-0.69,0.25c-0.24,0-0.48-0.07-0.73-0.21c-0.24-0.14-0.42-0.3-0.52-0.47c-0.08,0.15-0.21,0.29-0.4,0.42
				c-0.21,0.15-0.41,0.23-0.61,0.23c-0.16,0-0.34-0.07-0.55-0.21c-0.21-0.14-0.31-0.27-0.32-0.38l0.22-0.31
				c0.08,0.08,0.22,0.17,0.43,0.28c0.15-0.01,0.3-0.1,0.43-0.28c0.09-0.14,0.15-0.28,0.19-0.43c-0.37,0-0.92,0-1.66,0l-0.66-0.49
				h5.24C68.77,200.87,68.97,201.03,69.21,201.24z M67.89,201.71c0-0.31-0.06-0.47-0.18-0.47h-1.07c0.02,0.16,0.1,0.31,0.24,0.45
				c0.15,0.17,0.32,0.26,0.51,0.26C67.72,201.95,67.89,201.87,67.89,201.71z"/>
			<path class="st13" d="M69.39,206.03c-0.56-0.42-1.15-0.76-1.8-1.03c-0.57-0.24-1.26-0.45-2.08-0.64l-0.61-1.08
				c0.5,0.27,1.01,0.4,1.54,0.4c0.32,0,0.61-0.06,0.86-0.17c0.3-0.13,0.45-0.31,0.45-0.53c0-0.19-0.1-0.28-0.29-0.28
				c-0.08,0-0.16,0.01-0.22,0.03c-0.01,0.19-0.12,0.35-0.32,0.49c-0.2,0.14-0.42,0.21-0.67,0.21c-0.18,0-0.33-0.04-0.46-0.11
				c-0.15-0.08-0.22-0.18-0.22-0.31c0-0.26,0.18-0.48,0.55-0.63c0.3-0.13,0.64-0.19,1.03-0.19c0.41,0,0.74,0.1,0.99,0.3
				c0.25,0.2,0.38,0.45,0.38,0.76c0,0.42-0.38,0.76-1.13,1.03c0.4,0.16,1.03,0.56,1.89,1.19L69.39,206.03z"/>
			<path class="st13" d="M71.51,201.24h-0.98v3.78l-0.63-0.52v-2.65c0-0.2-0.09-0.35-0.27-0.47c-0.18-0.11-0.4-0.16-0.67-0.15
				l-0.64-0.48c0.27-0.02,0.47-0.04,0.59-0.04c0.44,0,0.8,0.17,1.07,0.51c-0.06-0.51-0.09-0.91-0.09-1.19l0.36,0.22
				c0.03,0.12,0.05,0.21,0.07,0.25c0.04,0.09,0.09,0.16,0.16,0.23h0.38L71.51,201.24z"/>
			<path class="st13" d="M76.34,200.63c-0.7-0.41-1.1-0.63-1.19-0.67c-0.46-0.21-0.92-0.32-1.4-0.32c-0.3,0-0.62,0.08-0.95,0.24
				c-0.36,0.18-0.56,0.37-0.59,0.59l0.15,0.26h0.46l0.65,0.49h-0.92v3.64l-0.67-0.48v-3.16h-0.62l-0.64-0.49h1.19
				c-0.22-0.15-0.33-0.29-0.33-0.42c0-0.3,0.21-0.58,0.64-0.83c0.41-0.24,0.81-0.36,1.22-0.36c0.97,0,1.91,0.35,2.81,1.05
				L76.34,200.63z"/>
			<path class="st13" d="M78.64,201.24h-0.88v3.61c-0.19-0.1-0.42-0.25-0.68-0.47c0.01-0.11,0.02-0.33,0.05-0.65
				c0.02-0.27,0.03-0.48,0.03-0.64c0-0.53-0.14-0.9-0.43-1.11l-1.55,1.18l-0.87-0.24c0.12-0.08,0.23-0.17,0.34-0.25
				c0.14-0.11,0.21-0.21,0.21-0.29c0-0.19-0.06-0.28-0.18-0.28c-0.07,0-0.18,0.02-0.32,0.07c-0.14,0.05-0.25,0.07-0.33,0.07
				c-0.1,0-0.2-0.04-0.3-0.12c-0.1-0.08-0.14-0.16-0.14-0.24c0-0.27,0.22-0.51,0.67-0.74c0.41-0.21,0.81-0.32,1.2-0.32
				c0.35,0,0.69,0.09,1.02,0.26c0.29,0.15,0.53,0.36,0.73,0.61c-0.07-0.44-0.1-0.95-0.1-1.52l0.42,0.23l0.05,0.06
				c0.01,0.21,0.15,0.31,0.43,0.3L78.64,201.24z M76.18,201.5c-0.18-0.12-0.37-0.17-0.56-0.17c-0.4,0-0.7,0.1-0.89,0.31
				c0.16,0.02,0.29,0.08,0.4,0.18c0.1,0.1,0.17,0.21,0.19,0.34L76.18,201.5z"/>
			<path class="st13" d="M84.07,201.24h-5.68l-0.65-0.49h5.64L84.07,201.24z M83.35,202.94c0,0.36-0.18,0.66-0.55,0.91
				c-0.37,0.25-0.79,0.37-1.27,0.37c-1.31,0-2.3-0.9-2.95-2.7l0.48,0.15c0.32,0.58,0.62,0.99,0.89,1.24c0.44,0.4,0.97,0.6,1.61,0.6
				c0.28,0,0.56-0.08,0.82-0.25c0.26-0.16,0.39-0.35,0.39-0.56c0-0.15-0.06-0.3-0.18-0.45c-0.14-0.16-0.31-0.24-0.51-0.24
				l-0.16,0.01c0.08,0.11,0.12,0.22,0.12,0.35c0,0.38-0.27,0.57-0.81,0.57c-0.26,0-0.48-0.07-0.64-0.22
				c-0.16-0.14-0.24-0.32-0.24-0.53c0-0.23,0.12-0.43,0.37-0.58c0.23-0.14,0.5-0.22,0.81-0.22c0.52,0,0.96,0.16,1.32,0.48
				C83.18,202.18,83.35,202.54,83.35,202.94z"/>
			<path class="st13" d="M85.74,204.42c0,0.14-0.06,0.25-0.18,0.34c-0.12,0.09-0.27,0.13-0.45,0.13c-0.17,0-0.31-0.05-0.44-0.14
				c-0.12-0.09-0.19-0.2-0.19-0.33c0-0.13,0.06-0.24,0.19-0.33c0.12-0.1,0.27-0.14,0.44-0.14c0.17,0,0.31,0.05,0.44,0.14
				C85.68,204.19,85.74,204.3,85.74,204.42z"/>
			<path class="st13" d="M89.75,203.39c0,0.36-0.21,0.69-0.62,0.98c-0.41,0.3-0.85,0.44-1.33,0.44c-0.23,0-0.44-0.05-0.63-0.16
				c-0.22-0.12-0.32-0.26-0.32-0.43c0-0.2,0.12-0.37,0.35-0.52c0.22-0.14,0.46-0.21,0.73-0.21c0.4,0,0.71,0.07,0.93,0.21
				c0.14-0.13,0.2-0.26,0.2-0.39c0-0.17-0.19-0.4-0.56-0.68c-0.35-0.25-0.7-0.51-1.05-0.76c-0.38-0.29-0.56-0.52-0.56-0.69
				c0-0.14,0.06-0.26,0.19-0.37c0.13-0.11,0.28-0.16,0.46-0.16c0.37,0,0.55,0.17,0.55,0.51c0,0.05,0,0.12,0,0.2
				c0.52,0.38,0.89,0.69,1.1,0.91C89.56,202.67,89.75,203.04,89.75,203.39z"/>
			<path class="st13" d="M94.56,203.25c0,0.31-0.22,0.62-0.65,0.92c-0.43,0.3-0.86,0.44-1.26,0.43h-0.18
				c0.04-0.15,0.08-0.29,0.12-0.44c0.05-0.17,0.07-0.32,0.07-0.44c0-0.22-0.17-0.44-0.5-0.66c-0.14-0.04-0.25-0.06-0.33-0.06
				c-0.1,0-0.2,0.07-0.3,0.22c-0.09,0.15-0.14,0.26-0.14,0.35c0,0.07,0.03,0.14,0.08,0.18h0.1c0.32,0,0.49,0.13,0.49,0.39
				c0,0.3-0.17,0.45-0.5,0.45c-0.27,0-0.49-0.09-0.67-0.27c-0.15-0.16-0.23-0.35-0.23-0.56c0-0.3,0.13-0.58,0.38-0.83
				c0.28-0.27,0.61-0.4,1-0.4c0.4,0,0.73,0.13,0.99,0.38c0.26,0.26,0.37,0.54,0.34,0.84c0.31-0.16,0.46-0.33,0.46-0.52
				c0-0.27-0.29-0.51-0.87-0.71c-0.54-0.17-1.08-0.34-1.63-0.51c-0.58-0.23-0.87-0.53-0.87-0.88c0-0.14,0.05-0.26,0.16-0.37
				c0.11-0.11,0.24-0.16,0.41-0.16c0.15,0,0.27,0.04,0.38,0.13c0.1,0.08,0.16,0.18,0.16,0.29c0,0.06-0.02,0.11-0.05,0.15
				c-0.06,0.07-0.09,0.11-0.1,0.12c0.03,0.05,0.33,0.13,0.89,0.26c0.65,0.14,1.14,0.31,1.47,0.5
				C94.3,202.37,94.56,202.76,94.56,203.25z"/>
			<path class="st13" d="M99.68,202.17c-0.53,0.1-0.99,0.25-1.39,0.45c-0.54,0.28-0.81,0.58-0.81,0.9c0,0.48,0.43,0.8,1.3,0.97
				c-0.41,0.15-0.8,0.22-1.15,0.22c-0.71,0-1.31-0.14-1.81-0.42c-0.55-0.31-0.82-0.73-0.82-1.24c0-0.48,0.25-0.95,0.75-1.42
				c0.5-0.47,1.05-0.74,1.67-0.82l1.14,0.2c-0.48,0.1-0.71,0.25-0.71,0.47c0,0.07,0.02,0.12,0.07,0.17l0.45,0.07
				c0.31,0.15,0.52,0.24,0.62,0.27C99.14,202.05,99.37,202.11,99.68,202.17z M97.72,202.17c-0.28-0.08-0.48-0.28-0.6-0.6
				c-0.39,0.15-0.71,0.38-0.97,0.69c-0.26,0.31-0.39,0.62-0.39,0.95c0,0.26,0.14,0.49,0.42,0.69c0.23,0.16,0.53,0.29,0.9,0.37
				c-0.23-0.23-0.35-0.49-0.35-0.77c0-0.27,0.09-0.53,0.27-0.77C97.18,202.48,97.42,202.3,97.72,202.17z"/>
			<path class="st13" d="M103.29,203.5c0,0.33-0.23,0.59-0.68,0.8c-0.38,0.18-0.81,0.27-1.28,0.27c-0.42,0-0.79-0.09-1.11-0.28
				c-0.35-0.21-0.52-0.46-0.52-0.77c0-0.19,0.09-0.36,0.27-0.52c0.16-0.15,0.36-0.26,0.61-0.33c-0.49-0.17-0.73-0.45-0.73-0.85
				c0-0.34,0.2-0.63,0.59-0.86c0.36-0.21,0.78-0.32,1.24-0.32c0.38,0,0.71,0.09,0.98,0.26c0.3,0.19,0.45,0.42,0.45,0.69
				c0,0.16-0.07,0.32-0.2,0.48c-0.13,0.16-0.29,0.28-0.48,0.37C103,202.62,103.29,202.97,103.29,203.5z M102.44,203.58
				c-0.02-0.15-0.15-0.3-0.39-0.47c-0.24-0.16-0.46-0.24-0.66-0.24h-0.03c-0.24,0.13-0.41,0.23-0.5,0.3
				c-0.15,0.13-0.23,0.28-0.23,0.43c0,0.14,0.1,0.25,0.3,0.34c0.17,0.07,0.35,0.11,0.56,0.11
				C101.98,204.05,102.3,203.89,102.44,203.58z M102.38,201.61c0-0.16-0.09-0.3-0.27-0.39c-0.18-0.1-0.38-0.15-0.6-0.15
				c-0.19,0-0.37,0.04-0.54,0.12c-0.19,0.09-0.29,0.21-0.29,0.35c0,0.16,0.1,0.31,0.31,0.44c0.18,0.11,0.38,0.19,0.61,0.23
				C102.12,201.98,102.38,201.79,102.38,201.61z"/>
		</g>
		<path class="st13" d="M96.55,191.11v-1.69h8.3v-4.31h-4.96v-7.54l-1.63-3.59l-1.63,3.59v7.54h-2.08v-5.58H84.52l-0.09,0.6
			l-0.66,4.42l-5.46-5.21l-1.18-1.13v6.09l-5.2-4.96l-1.18-1.13v6.09l-5.2-4.96l-1.18-1.13v18.23h40.73v-5.34H96.55z M78.53,181.47
			l3.93,3.75h-3.93V181.47z M72.15,181.47l3.93,3.75h-3.93V181.47z M65.76,181.47l3.93,3.75h-3.93V181.47z M103.69,195.04H65.76
			v-8.42h19.11l0.09-0.6l0.76-5.1h7.43v5.58h10.3v1.51h-8.3v4.49h8.54V195.04z M91.82,182.3h-5.14v0.23h-0.44v1.86h0.44v0.23h5.14
			v-0.23h0.44v-1.86h-0.44V182.3z M82.53,190.34c0.36,0,0.66,0.05,0.87,0.12l0.14-0.31c-0.15-0.05-0.5-0.13-1.03-0.13
			c-1.35,0-2.27,0.62-2.27,1.55c0,0.97,0.91,1.5,2.14,1.5c0.53,0,0.95-0.07,1.15-0.14l-0.11-0.31c-0.23,0.07-0.57,0.12-0.92,0.12
			c-1.05,0-1.66-0.46-1.66-1.19C80.83,190.78,81.51,190.34,82.53,190.34z M70.69,190.02c-1.16,0-2.01,0.61-2.01,1.55
			c0,0.89,0.8,1.5,1.95,1.5h0.01c1.1,0,2.01-0.54,2.01-1.56C72.65,190.63,71.88,190.02,70.69,190.02z M70.66,192.75L70.66,192.75
			c-0.89,0-1.39-0.57-1.39-1.2c0-0.64,0.46-1.23,1.4-1.23c0.93,0,1.38,0.61,1.38,1.2C72.05,192.2,71.55,192.75,70.66,192.75z
			 M77.74,190.41c-0.38-0.24-0.95-0.36-1.76-0.36c-0.44,0-0.85,0.03-1.2,0.06v2.91c0.29,0.03,0.62,0.04,1.02,0.04
			c0.84,0,1.51-0.15,1.93-0.43c0.4-0.27,0.62-0.67,0.62-1.15C78.36,190.99,78.14,190.65,77.74,190.41z M75.92,192.74
			c-0.22,0-0.42,0-0.57-0.02v-2.34c0.15-0.02,0.37-0.04,0.66-0.04c1.18,0,1.76,0.43,1.76,1.14
			C77.77,192.28,77.12,192.74,75.92,192.74z M98.25,173.96L98.25,173.96L98.25,173.96L98.25,173.96z"/>
		<polygon class="st13" points="89.24,171.29 89.24,170.14 87.05,170.14 87.05,169.35 75.72,169.35 75.72,170.14 74.22,171.29 
			70.89,171.29 70.89,173.13 74.22,173.13 75.72,171.98 79.44,171.98 79.44,173.13 84.02,173.13 84.02,171.98 88.14,171.98 
			88.14,173.13 94.06,173.13 94.06,171.29 		"/>
	</g>
</g>
</svg>
