<?xml version="1.0" encoding="utf-8"?>
<!-- Generator: Adobe Illustrator 28.2.0, SVG Export Plug-In . SVG Version: 6.00 Build 0)  -->
<svg version="1.1" id="Layer_1" xmlns="http://www.w3.org/2000/svg" xmlns:xlink="http://www.w3.org/1999/xlink" x="0px" y="0px"
	 viewBox="0 0 360 360" style="enable-background:new 0 0 360 360;" xml:space="preserve">
<style type="text/css">
	.st0{fill:#A22532;}
</style>
<path class="st0" d="M208.45,156.64c0.24,0.24-4.04,5.53-12.62,16.11c-1.41,1.74-3.58,4.44-6.23,8.25c-1.74,2.5-3.37,5.08-4.88,7.71
	c-1.89,3.29-3.63,6.67-5.22,10.12c-1.22,2.65-2.36,5.34-3.46,8.04c-0.26,0.64-0.72,0.99-1.39,1.03c-0.31,0.02-0.58-0.03-0.81-0.15
	c-0.36-0.19-0.55-0.51-0.61-0.61c-7.56-13.03-10.35-15.79-10.35-15.79c-3.1-3.07-4.04-4.67-6.57-6.82c-1.2-1.01-0.54-3.05,0.46-3.79
	c0.94-0.7,2-0.74,3.09-0.72c1.06,0.19,2.11,0.43,3.15,0.72c3.3,1.14,6.43,2.67,9.52,4.28c0.22,0.11,0.39,0.17,0.55,0.13
	c0.26-0.05,0.41-0.28,0.43-0.31C174.05,184.11,207.46,155.66,208.45,156.64z"/>
</svg>
